<?xml version="1.0" encoding="utf-8"?>
<!-- Generator: Adobe Illustrator 21.1.0, SVG Export Plug-In . SVG Version: 6.00 Build 0)  -->
<svg version="1.1" id="Layer_1" xmlns="http://www.w3.org/2000/svg" xmlns:xlink="http://www.w3.org/1999/xlink" x="0px" y="0px"
	 viewBox="0 0 300 300" style="enable-background:new 0 0 300 300;" xml:space="preserve">
<style type="text/css">
	.st0{fill:#FFFFFF;}
</style>
<path class="st0" d="M202,87.2c-8.3,0-15.4,5.4-18,12.8h-68c-2.6-7.5-9.6-12.8-18-12.8c-10.5,0-19,8.5-19,19s8.5,19,19,19
	c1.4,0,2.7-0.1,4-0.4l34,56.7c-2.8,3.3-4.5,7.6-4.5,12.2c0,10.5,8.5,19,19,19s19-8.5,19-19c0-4.7-1.7-9-4.6-12.4l33.2-56.5
	c1.2,0.2,2.5,0.4,3.8,0.4c10.5,0,19-8.5,19-19S212.5,87.2,202,87.2z M150.6,174.7c-1.4,0-2.7,0.1-4,0.4l-34-56.7
	c1.5-1.8,2.7-3.8,3.4-6.1h68c0.8,2.3,2,4.4,3.5,6.2L154.3,175C153.1,174.9,151.9,174.7,150.6,174.7z"/>
</svg>
