<?xml version="1.0" encoding="utf-8"?>
<!-- Generator: Adobe Illustrator 21.0.2, SVG Export Plug-In . SVG Version: 6.00 Build 0)  -->
<svg version="1.1" id="Layer_1" xmlns="http://www.w3.org/2000/svg" xmlns:xlink="http://www.w3.org/1999/xlink" x="0px" y="0px"
	 viewBox="0 0 300 30" style="enable-background:new 0 0 300 30;" xml:space="preserve">
<style type="text/css">
	.st0{fill:#FFFFFF;}
	.st1{fill-rule:evenodd;clip-rule:evenodd;}
</style>
<g>
	<line class="st0" x1="5" y1="14.2" x2="294.1" y2="14.2"/>
	<path class="st1" d="M226.5,16.4c0.9,0,3.4,0.1,3.3,0C228.7,16.4,226.8,16.4,226.5,16.4z M235.1,16.4c2.8-0.3,1.1,0.2,0.2,0
		C235.3,16.5,234.9,16.5,235.1,16.4z M269,16.6c-9.6,0-18.4-0.1-28.2-0.1c0.1-0.1,0.4-0.1,0.4,0C251.2,16.5,261.3,16.4,269,16.6z
		 M239.2,16.4c-0.2,0.1-1.2,0.1-1.8,0C237.8,16.4,238.3,16.5,239.2,16.4z M219.6,16.1c-0.7,0.1,1.3,0.1-0.4,0.1
		c2.4,0.2,4.7,0,6.7,0.1c-28.8,0.2-59.1,0.1-89.4,0c-31.4-0.1-67.8,0-99.2-0.8c0.7-0.1,1.7,0.1,2.2-0.1c-2.3-0.1-4.9-0.2-7.8-0.3
		c-2.8-0.1-5.4-0.3-8.2-0.5c-3-0.1-6-0.2-7.6-0.7c-2.7-0.1-4.1-0.4-6.7-0.5c-0.2-0.3-1.3-0.4-2.4-0.7c0.7,0,0.6,0.1,1,0
		C7,12.7,5.5,12.7,5,12.4c0.8,0,1.6,0.1,2.4,0.1c-0.2-0.2-2.6-0.2-2-0.4c1.2,0,1.2-0.1,1.8-0.2c32.1,1.3,65,1.3,97.4,1.5
		c23.5,0.2,42.7,0.1,67,0.1c18.1,0,36.9,0,54.7,0c23.4,0.1,43.6,0,65.5,0.6c0.6,0.2,1.7,0.2,2.2,0.4c0.1,0.9-5.3,1.1-8.4,1.2
		c-1.9,0.1-3.9,0.3-5.7,0.3c-5.6,0.1-9.9,0-15.7,0c-5.7,0-10.9,0.1-16.1,0c-1.8,0-3.3,0.1-4.9,0c-4.8,0.2-10.5,0-15.9,0
		c-1.2,0-2.4,0.1-3.5,0.1c-1.3,0-3.3-0.1-4.1-0.1C219.7,16.1,219.6,16.1,219.6,16.1z"/>
</g>
</svg>
