<?xml version="1.0" encoding="utf-8"?>
<!-- Generator: Adobe Illustrator 21.1.0, SVG Export Plug-In . SVG Version: 6.00 Build 0)  -->
<svg version="1.1" id="Layer_1" xmlns="http://www.w3.org/2000/svg" xmlns:xlink="http://www.w3.org/1999/xlink" x="0px" y="0px"
	 viewBox="0 0 300 300" style="enable-background:new 0 0 300 300;" xml:space="preserve">
<style type="text/css">
	.st0{fill:#D81313;}
</style>
<g>
	<path class="st0" d="M148.9,92.7c1.1,0,4,1.1,4,0.2C151.6,92.6,149.4,92,148.9,92.7z M159.2,94.8c4.2-1.6,0.7,2.3,0.1,0.4
		C159.3,95.2,158.9,94.9,159.2,94.8z M189.9,120.5c-5.6-10-13.9-17.5-24.3-22.9c0.3-0.4,0.8-0.7,0.6-0.1
		C177.2,102.4,187.3,111.2,189.9,120.5z M164,96.1c-0.6,0.8-1.7,0.4-2.3-0.4C162.6,95.3,162.9,96.2,164,96.1z M140.3,89.8
		c-0.8,0.8,1.7,1-0.5,1.2c3,1.6,5.9,0.4,8.4,1.3c-17.9-1-36,6.5-47.8,20.6C88.6,126.8,84,146.6,89,164.6
		c4.9,18.6,21.5,35.5,42.2,40.3c20.7,5.1,43.7-0.9,60.3-15.3c0.2,1.5-2.2,1.2-1.5,2.8c3.1-1.4,5.9-4,9.1-6.9c3-2.8,6.6-5.4,9.4-8.8
		c2.8-3.8,4.5-8.2,9.1-9.7c1.7-4.1,4.7-6.2,5.9-10.7c2.6,0,3.7-2,6.3-4c0.2,1.2-0.8,1.1-0.1,1.9c1.7-1.5,2.3-4.4,4.7-5.4
		c-0.5,1.6-1,3.2-1.4,4.8c2.1-0.2,1.8-5,3.8-4c-0.3,2.4,0.4,2.5,1.9,3.8c-6.8,33.2-29.1,59.8-56.9,71.9
		c-27.8,12.6-61.2,9.2-84.9-8.1c-17.1-12.5-27.9-29.5-32.8-48c-4.8-18.4-3.5-39.1,6.4-58.3c14.2-29.1,48.9-48,80.6-43.4
		c41,4.8,72,39.9,68.1,77.4c-1.5,1-2,2.8-3.5,3.7c-8.1,0-9.3-7.4-11.6-11.2c-1.2-2.3-3.6-4.5-4.5-6.6c-3.2-6.4-4.5-11.9-9.3-17.8
		c-4.8-5.6-9.9-9.8-15.3-13.7c-2-1.2-3.9-1.6-5.2-3.5c-6.2-1.3-12.3-5.5-19.4-6.3c-1.5-0.3-3.2,1-4.5,0.9c-1.6-0.2-4.1-0.9-5.2-0.8
		L140.3,89.8z"/>
	<path class="st0" d="M177.5,140c2.2,8,11.7,15.6,0.6,27.8c-5.7,6.2-15.7,4.9-24.5,7.2c-6.9,1.9-12.2,11.6-18.3,9.1
		c-8.7-3.6-19.8-16.6-22.4-26.4c-4.6-16.7,5.3-34,22-38.6S172.9,123.3,177.5,140z"/>
</g>
</svg>
