<?xml version="1.0" encoding="utf-8"?>
<!-- Generator: Adobe Illustrator 21.1.0, SVG Export Plug-In . SVG Version: 6.00 Build 0)  -->
<svg version="1.1" id="Layer_1" xmlns="http://www.w3.org/2000/svg" xmlns:xlink="http://www.w3.org/1999/xlink" x="0px" y="0px"
	 viewBox="0 0 300 300" style="enable-background:new 0 0 300 300;" xml:space="preserve">
<style type="text/css">
	.st0{fill:#FFFFFF;}
</style>
<g>
	<path class="st0" d="M199.8,168.5l-8.7-7.4c-10.3,12.2-25.2,19.1-41,19.1s-30.7-7-41-19.1l-8.7,7.4c11.2,13.3,27,21.4,44,22.9v27.7
		h-12.6v11.4h37.7v-11.4h-13.7v-27.7C172.7,189.9,188.6,181.7,199.8,168.5z"/>
	<path class="st0" d="M149.4,170.5c16.6,0,30-13.5,30-30V97c0-16.6-13.5-30-30-30s-30,13.5-30,30v43.4
		C119.4,157,132.9,170.5,149.4,170.5z M130.8,97c0-10.2,8.3-18.6,18.6-18.6c10.2,0,18.6,8.3,18.6,18.6v43.4
		c0,10.2-8.3,18.6-18.6,18.6c-10.2,0-18.6-8.3-18.6-18.6V97z"/>
</g>
</svg>
