<?xml version="1.0" encoding="utf-8"?>
<!-- Generator: Adobe Illustrator 21.1.0, SVG Export Plug-In . SVG Version: 6.00 Build 0)  -->
<svg version="1.1" id="Layer_1" xmlns="http://www.w3.org/2000/svg" xmlns:xlink="http://www.w3.org/1999/xlink" x="0px" y="0px"
	 viewBox="0 0 300 300" style="enable-background:new 0 0 300 300;" xml:space="preserve">
<style type="text/css">
	.st0{fill:#FFFFFF;}
</style>
<path class="st0" d="M266,138.2c-2.9-23.3-12.5-45.7-28.4-63c17.8,23.1,25,42.4,26.1,74.7c-2.1-25.7-13.8-65.4-51.4-90.6
	c-10.7-7.1-22.5-11.6-34.5-14.5c-12.4-3-26-4.4-39.4-2.9c-17.3,2.1-33.2,8.7-47,17.8C70,74,53.6,96.5,47,122
	c-6.8,25.4-4,53.6,8.3,77c12,23.5,32.8,42.1,56.8,51.6c24,9.8,50.9,10,74.4,2.5c-5.3,2.3-14.3,4.5-17,5.3
	c32.2-3.3,69.1-31.6,81.4-60.6c-6.5,17-22.7,34-31.8,40.5c0.1-0.4,3.3-2.5,5.1-4.4c-4,2.8-11,8.9-14.4,10.9
	c8-3.9,21.6-15.4,29.1-25.1c-1.7,3.7-12.6,14.3-17.3,18.2c23.4-16.1,44.8-54.7,43.6-87.9c0.7,17.5-2.2,36.9-12.6,56.6
	c-11.1,20.3-29.5,39.4-54,50.2c-24.3,10.9-54,13.7-81.8,5.2C89,253.6,64,233.9,49.2,207.7c-15-26.1-19-58.3-11.4-87.2
	c8.6-39,46.6-79.6,95.2-86.1c23.6-3.8,48.4,0.2,68.8,10.4c20.7,9.9,36.8,25.9,47.2,42.5C261,107.7,264.9,122.8,266,138.2z"/>
<g>
	<path class="st0" d="M177.3,114.8h-9.9c-7.8,0-9.2,3.7-9.2,9.1v12h18.5l-2.5,18.7h-16.1v48h-19.4v-48h-16.1v-18.7h16.1v-13.8
		c0-16,9.8-24.7,24.1-24.7c6.8,0,12.7,0.5,14.4,0.8L177.3,114.8L177.3,114.8z"/>
</g>
</svg>
