<?xml version="1.0" encoding="utf-8"?>
<!-- Generator: Adobe Illustrator 21.1.0, SVG Export Plug-In . SVG Version: 6.00 Build 0)  -->
<svg version="1.1" id="Layer_1" xmlns="http://www.w3.org/2000/svg" xmlns:xlink="http://www.w3.org/1999/xlink" x="0px" y="0px"
	 viewBox="0 0 208.1 6.3" style="enable-background:new 0 0 208.1 6.3;" xml:space="preserve">
<style type="text/css">
	.st0{fill:none;}
</style>
<g>
	<line class="st0" x1="1" y1="3.6" x2="207" y2="1.1"/>
	<path d="M194.4,2.3c-4.1,0,0.4-0.1,2.2,0C195.9,2.3,195.1,2.3,194.4,2.3z M200.7,2.2c-0.6-0.1-2.3,0-3.3,0
		C197.7,2.4,199.7,2.2,200.7,2.2z M207,2.1c-1.4-0.1-3.7,0-6,0C202,2.3,205.4,2.1,207,2.1z M170.5,2.2c-1.9-0.2-6.8,0.2-2.5,0.1
		C168.9,2.2,169.8,2.2,170.5,2.2z M162.8,2.7c-2.3-0.3-5.2,0.1-8.2-0.1c2.1-0.3,6.6-0.2,10.7-0.4c1-0.1-3.4,0-4.7,0
		c9.4-0.2,17-0.4,24.4-0.9c-4.9-0.2-8.7,0.1-12.6-0.1c-1,0,1.3-0.1,0.3-0.2c-17.1,0-33.5-0.1-51.1,0.3c-9,0.2-20.3,0.5-30.8,0.5
		c-0.6,0-0.6-0.2-1.7-0.3c-8.8,0.1-16.2,0.1-26.4,0.1C50.4,1.6,39.4,1,28.1,0.9C18.3,0.8,11.1,1,4.8,2C4.2,2.1,4.7,2.1,5.1,2.2
		c-0.8,0-1.6,0-2.5,0C7.7,2.1,0.9,2.9,1,3.3c0.1,0.9,8.8,0.8,14,1c2.1,0.1,2.7,0.1,5.5,0c4.4,0,9.2,0.2,14,0.3
		c7.6,0.5,16.3,0.5,24.8,0.5c31-0.2,64.5-1,90.9-1.9c-0.5-0.1,0.1-0.1,0.3-0.2C154.5,3,158.4,2.8,162.8,2.7z"/>
</g>
</svg>
