<?xml version="1.0" encoding="utf-8"?>
<!-- Generator: Adobe Illustrator 21.1.0, SVG Export Plug-In . SVG Version: 6.00 Build 0)  -->
<svg version="1.1" id="Layer_1" xmlns="http://www.w3.org/2000/svg" xmlns:xlink="http://www.w3.org/1999/xlink" x="0px" y="0px"
	 viewBox="0 0 300 300" style="enable-background:new 0 0 300 300;" xml:space="preserve">
<style type="text/css">
	.st0{fill:#050F21;}
</style>
<path class="st0" d="M162.2,265.9c23.3-2.9,45.7-12.5,63-28.4c-23.1,17.8-42.4,25-74.7,26.1c25.7-2.1,65.4-13.8,90.6-51.4
	c7.1-10.7,11.6-22.5,14.5-34.5c3-12.4,4.4-26,2.9-39.4c-2.1-17.3-8.7-33.2-17.8-47c-14.3-21.4-36.8-37.8-62.3-44.4
	c-25.4-6.8-53.6-4-77,8.3C77.9,67.2,59.3,88,49.8,112c-9.8,24-10,50.9-2.5,74.4c-2.3-5.3-4.5-14.3-5.3-17
	c3.3,32.2,31.6,69.1,60.6,81.4c-17-6.5-34-22.7-40.5-31.8c0.4,0.1,2.5,3.3,4.4,5.1c-2.8-4-8.9-11-10.9-14.4
	c3.9,8,15.4,21.6,25.1,29.1c-3.7-1.7-14.3-12.6-18.2-17.3c16.1,23.4,54.7,44.8,87.9,43.6c-17.5,0.7-36.9-2.2-56.6-12.6
	c-20.3-11.1-39.4-29.5-50.2-54c-10.9-24.3-13.7-54-5.2-81.8c8.4-27.8,28.1-52.8,54.3-67.6c26.1-15,58.3-19,87.2-11.4
	c39,8.6,79.6,46.6,86.1,95.2c3.8,23.6-0.2,48.4-10.4,68.8c-9.9,20.7-25.9,36.8-42.5,47.2C192.7,260.9,177.6,264.8,162.2,265.9z"/>
<g>
	<path class="st0" d="M113.1,125.2L113.1,125.2c-7.1,0-11.6-4.8-11.6-10.8c0-6.1,4.7-10.8,11.8-10.8c7.1,0,11.6,4.7,11.6,10.8
		C124.9,120.4,120.3,125.2,113.1,125.2z M123.5,196.4h-20.9v-62.7h20.9V196.4z M198.6,196.4h-20.8v-33.5c0-8.4-3-14.2-10.6-14.2
		c-5.8,0-9.2,3.9-10.7,7.6c-0.5,1.4-0.7,3.2-0.7,5.1v35H135c0.3-56.8,0-62.7,0-62.7h20.8v9.1h-0.1c2.7-4.3,7.7-10.6,18.9-10.6
		c13.7,0,24,9,24,28.2L198.6,196.4L198.6,196.4z"/>
</g>
</svg>
