<?xml version="1.0" encoding="utf-8"?>
<!-- Generator: Adobe Illustrator 21.1.0, SVG Export Plug-In . SVG Version: 6.00 Build 0)  -->
<svg version="1.1" id="Layer_1" xmlns="http://www.w3.org/2000/svg" xmlns:xlink="http://www.w3.org/1999/xlink" x="0px" y="0px"
	 viewBox="0 0 400 400" style="enable-background:new 0 0 400 400;" xml:space="preserve">
<style type="text/css">
	.st0{fill:#FFFFFF;}
</style>
<g>
	<path class="st0" d="M167.7,266c17.8-17.8,46.7-17.8,64.6,0c12.2,12.2,16.1,29.6,11.5,45.1L339,339l-27.9-95.2
		c-15.5,4.5-32.9,0.7-45.1-11.5c-17.8-17.8-17.8-46.7,0-64.6c12.2-12.2,29.6-16.1,45.1-11.5L339,61l-95.2,27.9
		c4.5,15.5,0.7,32.9-11.5,45.1c-17.8,17.8-46.7,17.8-64.6,0c-12.2-12.2-16.1-29.6-11.5-45.1L61,61l27.9,95.2
		c15.5-4.5,32.9-0.7,45.1,11.5c17.8,17.8,17.8,46.7,0,64.6c-12.2,12.2-29.6,16.1-45.1,11.5L61,339l95.2-27.9
		C151.7,295.7,155.5,278.3,167.7,266z M187.5,212.5c-6.9-6.9-6.9-18.1,0-25c6.9-6.9,18.1-6.9,25,0c6.9,6.9,6.9,18.1,0,25
		C205.6,219.4,194.4,219.4,187.5,212.5z"/>
</g>
</svg>
