<?xml version="1.0" encoding="utf-8"?>
<!-- Generator: Adobe Illustrator 21.1.0, SVG Export Plug-In . SVG Version: 6.00 Build 0)  -->
<svg version="1.1" id="Layer_1" xmlns="http://www.w3.org/2000/svg" xmlns:xlink="http://www.w3.org/1999/xlink" x="0px" y="0px"
	 viewBox="0 0 400 400" style="enable-background:new 0 0 400 400;" xml:space="preserve">
<style type="text/css">
	.st0{fill:#FFFFFF;}
</style>
<g>
	<path class="st0" d="M302.5,252.7c-7.5,4.4-16.3,6.9-25.7,6.9c-28.3,0-51.3-23-51.3-51.3c0-18.9,10.3-35.5,25.6-44.4L200,58.9
		l-51.2,105c15.3,8.9,25.6,25.4,25.6,44.4c0,28.3-23,51.3-51.3,51.3c-9.3,0-18.1-2.5-25.7-6.9l-67,88.4h118.3
		c0-28.3,23-51.3,51.3-51.3s51.3,23,51.3,51.3h118.3L302.5,252.7z M200,273c-9.9,0-17.9-8-17.9-17.9c0-9.9,8-17.9,17.9-17.9
		c9.9,0,17.9,8,17.9,17.9C217.9,265,209.9,273,200,273z"/>
</g>
</svg>
