<?xml version="1.0" encoding="utf-8"?>
<!-- Generator: Adobe Illustrator 21.1.0, SVG Export Plug-In . SVG Version: 6.00 Build 0)  -->
<svg version="1.1" id="Layer_1" xmlns="http://www.w3.org/2000/svg" xmlns:xlink="http://www.w3.org/1999/xlink" x="0px" y="0px"
	 viewBox="0 0 300 300" style="enable-background:new 0 0 300 300;" xml:space="preserve">
<style type="text/css">
	.st0{fill:#FFFFFF;}
</style>
<path class="st0" d="M223.8,59.6c-18.5-14.5-41.1-23.5-64.6-24.4c28.9,3.7,47.7,12.3,71.3,34.4c-19.7-16.7-56-36.4-100.4-27.7
	c-12.6,2.6-24.2,7.7-34.7,14.1c-10.9,6.7-21.5,15.3-29.9,25.9c-10.7,13.7-17.4,29.6-20.7,45.8c-5,25.2-0.7,52.7,12.7,75.5
	c13.2,22.8,35.1,40.7,60.3,48.6c25.1,8.1,53,6.6,76.6-3.7c23.9-10,43-29,54.4-50.9c-2.2,5.4-6.9,13.3-8.3,15.8
	c20.4-25.1,26.5-71.2,14.7-100.4c7.4,16.7,8,40.1,6.1,51.1c-0.2-0.4,0.5-4.1,0.5-6.8c-0.8,4.8-1.5,14.1-2.5,17.9
	c2.9-8.4,4.3-26.1,2.9-38.3c1.4,3.8,1.2,19,0.7,25.1c5.2-27.9-7-70.3-31.3-93c12.9,11.9,24.5,27.6,31.1,48.9
	c6.5,22.1,7,48.7-2.7,73.7c-9.5,24.9-28.5,47.9-54.2,61.6c-25.6,13.7-57.2,17.5-86.2,9.4c-29.1-7.9-54.6-27.8-69.7-53.6
	c-21.5-33.7-23.3-89.3,6.4-128.2c14-19.4,34.4-34.1,56.1-41.3c21.6-7.6,44.3-7.7,63.4-3.3C198.7,41.6,212.1,49.5,223.8,59.6z"/>
<g>
	<path class="st0" d="M189.6,129.7c0.1,0.9,0.1,1.8,0.1,2.7c0,27-20.6,58.1-58.1,58.1c-11.6,0-22.3-3.4-31.4-9.2
		c1.6,0.2,3.2,0.3,4.9,0.3c9.6,0,18.3-3.2,25.4-8.7c-9-0.2-16.5-6.1-19.1-14.2c1.3,0.2,2.5,0.3,3.9,0.3c1.8,0,3.7-0.3,5.4-0.7
		c-9.4-1.9-16.4-10.1-16.4-20c0-0.1,0-0.2,0-0.3c2.7,1.5,5.9,2.5,9.2,2.6c-5.5-3.7-9.1-9.9-9.1-17c0-3.8,1-7.3,2.8-10.3
		c10.1,12.4,25.2,20.5,42.1,21.4c-0.3-1.5-0.5-3.1-0.5-4.7c0-11.3,9.1-20.4,20.4-20.4c5.9,0,11.2,2.5,14.9,6.5c4.6-0.9,9-2.6,13-4.9
		c-1.5,4.7-4.7,8.7-9,11.3c4.1-0.4,8.1-1.6,11.8-3.2C197.1,123.2,193.6,126.8,189.6,129.7z"/>
</g>
</svg>
