<?xml version="1.0" encoding="utf-8"?>
<!-- Generator: Adobe Illustrator 21.1.0, SVG Export Plug-In . SVG Version: 6.00 Build 0)  -->
<svg version="1.1" id="Layer_1" xmlns="http://www.w3.org/2000/svg" xmlns:xlink="http://www.w3.org/1999/xlink" x="0px" y="0px"
	 viewBox="0 0 70 70" style="enable-background:new 0 0 70 70;" xml:space="preserve">
<style type="text/css">
	.st0{fill:#FFFFFF;}
	.st1{fill:#D81313;}
</style>
<g>
	<path class="st0" d="M1,66.6c0.8,0.9,1.8,1.5,3,1.9c0.2-0.1,6.2-0.7,6.2-0.7l7.1,0.2l9.7-0.1l5.9,0.5l6.6-0.4l19.9,0.3l1.4,0.4
		c0.1-0.1,4.4-0.7,4.9-0.6c1-0.5,1.8-1.2,2.4-2c0.4-2,0.1-5.2,0.1-5.2l0.4-5.3l-0.6-2.9V51L67.3,41l1.2-10.7l-0.5-9.5l1.3-6.6
		c0,0,0.1-6.4,0.2-9.6c-0.1-1-0.3-1.9-0.8-2.7c-1.1-0.2-2.1,0.2-3.2,0.1c-3-0.2-5.8-0.4-8.6-0.5L45.2,2.6L27.6,1.9
		C27.6,1.9,27.5,2,27.4,2c0,0,0-0.1,0-0.1L25,1.8L7.9,1.5L7.2,1.8L4.7,1.4l-1.9,0L2.1,2.1l-0.7,1L0.9,8l-0.2,4.8
		c0,0,0.5,4.6,0.9,6.8c0.1,0.6,0,1,0,1.7c0.2,3.1,0.8,9.9,0.8,9.9L1.7,42l-0.1,4.2l-1,4.6l0.2,6.5l-0.2,2.1l0.5,4.3L1,66.6z"/>
</g>
<title>Group 18</title>
<desc>Created with Sketch.</desc>
<g id="Mockup">
	<g id="Home---Single-Page" transform="translate(-633.000000, -480.000000)">
		<g id="Infos" transform="translate(-33.000000, 481.000000)">
			<g id="Networking" transform="translate(589.000000, 0.000000)">
				<g id="Group-18" transform="translate(79.000000, 0.000000)">
					<path id="Shape" class="st1" d="M44.7,20c-1.9,0-3.5,1.2-4.1,2.9H25.3c-0.6-1.7-2.2-2.9-4.1-2.9c-2.4,0-4.3,1.9-4.3,4.2
						s1.9,4.2,4.3,4.2c0.3,0,0.6,0,0.9-0.1L29.9,41c-0.6,0.7-1,1.7-1,2.7c0,2.3,1.9,4.2,4.3,4.2s4.3-1.9,4.3-4.2c0-1-0.4-2-1-2.8
						l7.5-12.6c0.3,0,0.6,0.1,0.9,0.1c2.4,0,4.3-1.9,4.3-4.2S47.1,20,44.7,20z M33.1,39.5c-0.3,0-0.6,0-0.9,0.1L24.6,27
						c0.3-0.4,0.6-0.8,0.8-1.4h15.3c0.2,0.5,0.5,1,0.8,1.4L34,39.6C33.7,39.6,33.4,39.5,33.1,39.5z"/>
				</g>
			</g>
		</g>
	</g>
</g>
</svg>
