<svg xmlns="http://www.w3.org/2000/svg" viewBox="0 0 187.05 186.89"><defs><style>.cls-1{fill:#1d1d1b;}</style></defs><title>Fichier 2</title><g id="Calque_2" data-name="Calque 2"><g id="Symbol-01"><g id="Final"><path class="cls-1" d="M59.8,162a76.63,76.63,0,0,1-34.86-34.87H51.3V111.83H.28a94.34,94.34,0,0,0,8,23.65l0,0q1.55,3.14,3.32,6.14l0,.07q1.77,3,3.74,5.83l.06.08q2,2.84,4.15,5.53l.05.07q2.19,2.7,4.57,5.23l0,0a95.61,95.61,0,0,0,7.57,7.22l0,0q2.63,2.24,5.41,4.29l.12.09q2.76,2,5.66,3.84l.16.1q2.89,1.81,5.92,3.41l.19.1q3,1.59,6.18,3l.19.08q3.17,1.37,6.45,2.52l.16.06q3.31,1.15,6.73,2.06l.1,0q1.71.45,3.45.84l.07,0q1.74.39,3.51.72V135.71H59.8Z"/><path class="cls-1" d="M51.3,147.91v-12.2H39.09A69.31,69.31,0,0,0,51.3,147.91Z"/><polygon class="cls-1" points="59.8 76.54 59.8 85.08 8.19 85.08 8.19 103.29 59.8 103.29 59.8 111.83 59.8 127.17 76.21 127.17 76.21 59.96 59.8 59.96 59.8 76.54"/><path class="cls-1" d="M72.59.74q-1.76.39-3.49.86l-.14,0q-3.43.92-6.76,2.08L62,3.79q-3.29,1.16-6.47,2.55l-.23.1q-3.17,1.4-6.22,3l-.2.1q-1.53.82-3,1.69l0,0q-1.49.87-3,1.79l-.11.07Q41.29,14,39.88,15l-.2.14q-2.8,1.93-5.45,4l-.28.22q-2.6,2.1-5.05,4.37l-.3.28q-2.43,2.27-4.69,4.71l-.28.3q-1.12,1.21-2.2,2.47l-.16.19q-1,1.19-2,2.42l-.22.27q-1,1.28-2,2.59l-.26.35q-.93,1.27-1.82,2.56l-.11.16q-.92,1.35-1.79,2.74l-.29.46Q11.08,46.06,9.55,49l-.27.52c-.5,1-1,1.94-1.47,2.92l0,.1c-.45,1-.89,1.91-1.31,2.88l-.23.52q-.64,1.49-1.23,3l-.14.37q-.54,1.4-1,2.82l-.17.47q-.53,1.53-1,3.09l-.16.53Q2,67.66,1.64,69.13l-.09.32Q1.14,71,.79,72.66l-.14.62C.42,74.36.2,75.45,0,76.54H51.3V60H24.81a76.68,76.68,0,0,1,35-35.1V51.42H76.21V0q-1.8.33-3.58.73Z"/><path class="cls-1" d="M38.9,51.42H51.3V39A69.32,69.32,0,0,0,38.9,51.42Z"/><path class="cls-1" d="M136,39.15V51.42h12.18A69.31,69.31,0,0,0,136,39.15Z"/><path class="cls-1" d="M127.46,25a76.83,76.83,0,0,1,34.77,35H136V76.54H187c-.2-1.09-.42-2.18-.65-3.26l-.14-.62q-.36-1.61-.77-3.2l-.09-.32q-.39-1.48-.83-2.94l-.16-.53q-.48-1.56-1-3.09l-.17-.47q-.5-1.42-1-2.82l-.14-.38q-.59-1.51-1.23-3l-.23-.52q-.63-1.45-1.31-2.87l-.05-.12c-.47-1-1-2-1.47-2.92l-.27-.52q-1.53-2.89-3.26-5.66l-.29-.46q-.87-1.38-1.79-2.74l-.1-.14q-.89-1.3-1.82-2.57L170,37q-1-1.32-2-2.6l-.21-.26q-1-1.23-2-2.43l-.17-.2q-1.08-1.25-2.2-2.47l-.27-.29q-2.27-2.44-4.7-4.72l-.29-.27q-2.45-2.28-5.06-4.38l-.27-.22q-2.65-2.12-5.46-4.06l-.19-.13q-1.42-1-2.87-1.89l-.07,0q-1.47-.93-3-1.8l0,0q-1.5-.87-3-1.69L138,9.48q-3.06-1.63-6.25-3l-.2-.09Q128.39,5,125.09,3.8l-.2-.07q-3.33-1.16-6.77-2.08l-.14,0q-3.5-.93-7.1-1.6h0V51.42h16.58Z"/><path class="cls-1" d="M135.87,111.83v15.34h26.24A76.53,76.53,0,0,1,127.37,162V135.71H110.88v51.18h0q1.79-.33,3.55-.73h0q1.75-.39,3.47-.85l.09,0q3.42-.91,6.74-2.07l.15-.05q3.29-1.15,6.47-2.53l.17-.07q3.16-1.38,6.2-3l.17-.09q3-1.61,5.94-3.42L144,174q2.91-1.83,5.68-3.86l.09-.07q2.8-2.06,5.43-4.31l0,0a95.59,95.59,0,0,0,7.57-7.22l0,0q2.37-2.53,4.56-5.22l.05-.07q2.17-2.68,4.15-5.53l.06-.08q2-2.84,3.74-5.83l0-.07q1.77-3,3.32-6.14l0,0a94.33,94.33,0,0,0,8-23.64H135.87Z"/><path class="cls-1" d="M148,135.71H135.87v12.11A69.31,69.31,0,0,0,148,135.71Z"/><polygon class="cls-1" points="84.71 17.54 84.71 25.1 84.71 178.94 102.38 178.94 102.38 7.81 84.71 7.81 84.71 17.54"/><polygon class="cls-1" points="127.37 103.32 127.46 103.32 127.46 103.29 179.32 103.29 179.32 85.08 127.46 85.08 127.46 59.96 110.88 59.96 110.88 127.17 127.37 127.17 127.37 103.32"/></g></g></g></svg>