<?xml version="1.0" encoding="utf-8"?>
<!-- Generator: Adobe Illustrator 21.1.0, SVG Export Plug-In . SVG Version: 6.00 Build 0)  -->
<svg version="1.1" id="Layer_1" xmlns="http://www.w3.org/2000/svg" xmlns:xlink="http://www.w3.org/1999/xlink" x="0px" y="0px"
	 viewBox="0 0 400 20" style="enable-background:new 0 0 400 20;" xml:space="preserve">
<style type="text/css">
	.st0{fill:#F6F6F6;}
</style>
<g>
	<path class="st0" d="M95.3,11.2c-0.2-0.2-1.1-0.2-1.4-0.1C94.4,11.2,95,11.1,95.3,11.2z"/>
	<path class="st0" d="M97.6,11c-0.4,0.1-1.5,0-1.9,0.1C96,11.2,97.6,11.3,97.6,11z"/>
	<path class="st0" d="M81.7,11.1c0,0.1,0,0.1,0,0.2c0.3,0,0.5,0,0.5-0.1C82,11.1,82,11.1,81.7,11.1z"/>
	<path class="st0" d="M87.8,11.1c0.4,0.1,1.4,0.2,1.9,0.1C89.2,11.1,88.2,11,87.8,11.1z"/>
	<path class="st0" d="M120.1,11.1c-0.7,0-2.4-0.2-2.9,0.1C118.1,11.2,119.6,11.4,120.1,11.1z"/>
	<path class="st0" d="M74.8,11.1c0,0.1,0,0.1,0,0.2c0.3,0,0.5-0.1,0.7-0.2C75,11.1,75.2,11.1,74.8,11.1z"/>
	<path class="st0" d="M112,11.1c0.7,0,1.8,0.1,2-0.1c-0.6,0-1.6,0.1-1.8-0.1C112.4,11.2,111.9,10.9,112,11.1z"/>
	<path class="st0" d="M103.7,11c-0.9,0-1.3-0.1-1.6,0.1C102.7,11.1,103.7,11.3,103.7,11z"/>
	<path class="st0" d="M101.4,11.1c0-0.2-0.7-0.2-0.8-0.1C100.7,11.2,101,11.2,101.4,11.1z"/>
	<path class="st0" d="M245.7,11.7c0.1-0.2-0.7-0.2-0.7-0.1C245.3,11.7,245.3,11.8,245.7,11.7z"/>
	<path class="st0" d="M210.9,11.6c0.5,0,1.1,0,1.4,0.1C212.1,11.5,211.1,11.5,210.9,11.6z"/>
	<path class="st0" d="M250.4,11.6c-0.5,0.1-0.7-0.1-1,0.1C249.8,11.7,250.5,11.8,250.4,11.6z"/>
	<path class="st0" d="M240.5,11.6c0.2,0.2,1,0.1,1.2,0.1C241.5,11.6,241.1,11.6,240.5,11.6z"/>
	<path class="st0" d="M244.4,11.6c0.3,0,0.7,0,0.7-0.1C244.9,11.5,244.3,11.5,244.4,11.6z"/>
	<path class="st0" d="M250.5,11.5c-0.3,0-0.7,0-0.9,0c-0.4,0-0.8,0-1.6,0c-0.1,0.1-0.5,0.1-0.9,0.1c0.7,0,1.6,0,2.2-0.1
		c-0.1,0-0.2,0-0.3,0.1C249.6,11.6,250.4,11.7,250.5,11.5z"/>
	<path class="st0" d="M336.1,11.6c-0.7,0-2.4-0.2-2.9,0.1C334.1,11.7,335.6,11.9,336.1,11.6z"/>
	<path class="st0" d="M344.7,11.7c0.1-0.2-0.7-0.2-0.7-0.1C344.3,11.7,344.3,11.8,344.7,11.7z"/>
	<path class="st0" d="M339.5,11.6c0.2,0.2,1,0.1,1.2,0.1C340.5,11.6,340.1,11.6,339.5,11.6z"/>
	<path class="st0" d="M328,11.6c0.7,0,1.8,0.1,2-0.1c-0.6,0-1.6,0.1-1.8-0.1C328.4,11.7,327.9,11.4,328,11.6z"/>
	<path class="st0" d="M348.5,11.7c0.3,0,1.1,0.1,1-0.1C348.9,11.7,348.7,11.6,348.5,11.7z"/>
	<path class="st0" d="M0,0v9v2c0,0,9.5,0,28.6,0c-0.1,0-0.2,0.1-0.2,0.1c0.3,0,0.7,0,0.7-0.1c0,0-0.1,0-0.2,0c1.5,0,3.1,0,4.7,0
		c-0.2,0-0.5,0-0.6,0.1c0.5,0,1.3,0.1,1.5-0.1c0.5,0,1,0,1.5,0c0,0.1-0.2,0.1-0.1,0.2c0.5,0,0.3-0.2,0.8-0.2c0,0.1,0,0.2,0.4,0.2
		c-0.1-0.1-0.2-0.2,0.3-0.2c0,0.1-0.3,0.2,0.3,0.2c0.4,0-0.3-0.2,0.1-0.2c0.4,0,0.5,0.1,0.8,0.2c0.1-0.1,0.1-0.1,0.3-0.2
		c-0.1,0.1,0.3,0.1,0.4,0.2c0-0.1,0.1-0.2,0.4-0.2c0.1,0,0,0.2,0.4,0.2c0-0.1,0.3-0.1,0.5-0.2c0.2,0,0,0.2,0.3,0.2
		c0.3-0.1-0.2-0.1,0.1-0.2c0.2,0.1,0.3,0.2,0.3-0.1c0.8,0.4,1.4-0.1,3.1,0c-0.1,0.1-0.2,0.1,0,0.2c0.9-0.2,1.5-0.2,1.9,0
		c0.5-0.1,0.9-0.2,1.4-0.1c0.1,0,0-0.2,0.5-0.2c0.3,0.3,1.3,0,1.8,0.2c0.2,0,0-0.3,0.4-0.2c0,0.1,0,0.2,0.3,0.2
		c0.9-0.4,2.3,0.1,2.9-0.2c0.2,0,0,0.2,0.3,0.2c0.1-0.1,0.4-0.1,1-0.2c0.3,0.2,0.6,0,1.1,0.2c0.2-0.2,1.1-0.2,1.5-0.1
		c1.3-0.4,3.1,0,4.5-0.2c0.1,0,0,0.2,0.4,0.2c0.2-0.4,1.8,0.1,2.3-0.2c0.3,0.4,1.5-0.2,2,0.2c-0.1-0.3,0.4,0,0.8-0.2
		c0,0.1,0,0.2,0.3,0.2c0.4,0,0.9-0.1,1.1-0.2c0.1,0.3,1.1-0.1,1.8,0.2c0-0.1,0-0.1,0.1-0.2c0.6,0.4,1.5-0.2,2.3,0.2
		c0.1-0.1-0.2-0.1,0-0.2c0.3,0.1,1.4,0,1.4,0.2c0.5,0.1,0.2-0.2,0.7-0.2c0.3,0.1,0.7,0.2,1.1,0.2c0.1-0.4,0.9,0.1,1.6-0.2
		c0.6,0.4,1.2,0,2.3,0c0.3,0.3-0.8,0.1-0.8,0.4c0.4-0.1,1.1,0.1,1.8-0.1c-0.4,0-0.3-0.1-0.5-0.2c0,0.1,0,0.1-0.1,0.2
		c0.1-0.1-0.2-0.3,0.1-0.3c0.5,0.1,0.6,0.1,1.1,0.2c0.1-0.1-0.2-0.1,0-0.2c0.7,0,1.3,0.3,1.2,0c0.3,0,0.4,0.1,0.5,0.2
		c0.1-0.1-0.2-0.1,0-0.2c0.4,0,0.3,0.2,0.8,0.2c0-0.1,0.7-0.3,1-0.1c-0.2,0-0.5,0-0.4,0.1c0.5,0.1,0.5-0.1,0.7-0.2
		c0.1,0.1,0.7,0.1,1,0.2c0-0.3,1.5-0.1,1.2,0c0.4-0.1,2-0.2,1.5,0c0.6,0.1,0.3-0.2,0.7-0.2c0.2,0.1,0.7,0.1,0.7,0.3
		c-0.3,0-0.4-0.1-0.5,0.1c1,0.2,2.5-0.1,3.4,0c0.2,0,0-0.2,0.3-0.3c0.9,0.1,1.5-0.1,2.3-0.1c0.7-0.1,3.4,0.1,3.9-0.1
		c0,0.1,0,0.1,0.1,0.2c0.4-0.2,2.4-0.2,2.9-0.1c0.7-0.2,3.3-0.1,5.2-0.1c-0.3,0.2,0.5,0.1,1,0.1c-0.2,0-0.4,0-0.4-0.1
		c2.9,0.1,5.4,0,7.5,0.1c1.9,0.1,4-0.2,5.8-0.1c0.8,0,1.5-0.1,2.2,0.1c1.7,0,3.4,0,5.2,0c2,0.1,3.9,0.2,5.9,0.2
		c2.5-0.1,6.7-0.1,10.6-0.1c0,0.1,0.1,0.2,0.4,0.2c-0.1-0.4,0.9,0,0.9-0.1c2,0,4.5,0,7.5,0.1c-4,0-8-0.1-10.9,0
		c-0.5,0.1-1.8,0.2,0.8,0.2c-2,0.2-4.6,0-6.7-0.1l1.8-0.2c-1.9,0-3.9,0-5.9,0c0,0,0.1,0,0-0.1c-0.4,0.1-0.7,0-0.9,0.1
		c-1.3,0-2.6,0-3.9,0c-0.1-0.1-0.5-0.1-0.6,0c-1.2,0-2.3,0-3.4,0c-0.2-0.1-0.6-0.1-1.1-0.1c0,0,0.1,0.1,0.2,0.1
		c-0.9,0-1.8,0-2.6,0.1l1,0.2c-5.1,0.1-10-0.1-12.8,0c3.7,0.3-2.6,0.2-3.7,0.3c3.5,0.1,8.7-0.1,9.4-0.1l-0.1,0l6.8-0.2l-0.1,0.2
		c0.4-0.5,9.2,0.2,7.9-0.2c1.9,0,2.7,0.2,2.4,0.3l5.3-0.2c0.6,0.1-0.5,0.3-1.2,0.3c-2.1,0-5.5,0.2-7.5,0c-1.7,0.1,1.6,0.3-2.2,0.3
		c-6.4-0.3-14.1,0-18.6-0.2c1,0.1,2.1,0.1,0.8,0.2l-3.1-0.2c-2.6,0.1-3.9,0.3-5.7,0.2c-0.7,0.1,4.6,0.2,6.2,0.3
		c-2.5,0.5-5.4-0.3-8,0.1c-1.2,0.3,6.8-0.1,4.5,0.3l-3.5-0.1c2.4,0.4,5.9-0.1,6.8,0.3c-1.3,0.1-5,0-5.4,0c-1.1,0.1,2,0.2,0.1,0.4
		c-2-0.2-3,0.1-4.6-0.1l0.9-0.2c-1.5,0-5.2-0.1-6.9,0c-0.1-0.3,4.1-0.4,5.8-0.4c-1.4-0.1-4.2-0.1-5.7-0.1l2.7,0.1
		c-4,0-3.1,0.4-7.7,0.4c-3.8,0.1-1-0.2-2.2-0.4c-4.3,0.2-1.5,0-1.4,0.3c-3.4,0-4.2-0.1-8.6,0c2.6-0.1,3.2-0.2,5.7-0.2l-0.8-0.2
		c-3.4,0.1-6,0.4-10.1,0.6l-0.4-0.2c-0.8,0.1-33.5,0.1-31.5,0.5c-0.5,0,6.5,0,12.6,0L48,13.4c-5,0.1-19.3,0.2-15.1,0.2
		c-0.3,0.3-2.6,0.1-2.4,0.4c-5.3,0.1-8.8,0.1-12.4,0c7.6,0.4,16.3,0.6,25.7,0.6c1.1-0.1,2-0.1,0.5-0.2c-2.4,0.1-3.6-0.1-1.8-0.2
		c2.6-0.1-0.3,0.2,2.7,0l-1.4-0.1c3,0,4.5-0.1,6.2-0.3c11.7,0.3,24.3-0.4,34.5,0l3.5-0.3c0.2,0.1,0.5,0.3,2.2,0.2
		c-0.6,0-1.7,0-1.4-0.1l7.8,0l-0.8-0.1c2.5,0.1,7-0.1,9.6,0.1c0-0.1,1.7-0.1,1.6-0.3c7.7,0.2,16.2-0.1,22.6,0.2
		c-0.6-0.1,0.1-0.2,0.3-0.2c2.5,0,0.6,0.1,1.2,0.2c1.1-0.7,34.2,0.3,38.3-0.1c-0.6,0-1.2,0-1-0.1c11.9,0,24.8,0,36.2-0.2
		c-3,0-0.8-0.4-2.6-0.5c-1.9,0.1,2.5,0.1-0.1,0.2c-3.4-0.4-2.4,0.3-6.1-0.1l2-0.2c-4.3,0.2-10.2,0.2-15.4,0.2l0.5-0.3
		c-1.9,0.1-4.6,0.1-5-0.1c6.1,0.1,7.1-0.5,10.8-0.3c-0.4,0.1-0.2,0,0.2,0.1c1.5-0.2,4.3-0.4,7.2-0.3l-1.1,0.2c4.6,0,9.6,0.1,13.9,0
		c-1.2-0.1,0.1-0.2,2-0.3c2.9,0.1-0.9,0.1,0.3,0.2c1.8,0.3,7-0.1,9.1-0.1c-0.7,0.1,5.6,0.2,1.8,0.3c4.6,0.1,7.9-0.3,10.9,0
		c0.5-0.1,1.6-0.3,2.8-0.3l-0.1,0.2l1.5-0.2c3.1,0,4.6,0.5,7.7,0.3c-0.6,0-1.8,0-1.9-0.1c0.3-0.2,6.2-0.3,5-0.5l-2.6,0.2
		c0.9-0.2-2.5-0.1-1.8-0.3l-7,0.1l-0.1-0.1c0.1,0,0.3,0,0.4,0l1.2,0.1c0.9-0.2,0.3-0.2-0.8-0.2c0,0,0,0,0,0c-0.7,0-2.4-0.1-2.8,0
		c-0.7,0-1.3,0-1.7-0.1l-0.1,0.2c-1.7,0-2.6-0.1-3.2-0.1c0.7,0,1.5,0.1,1.7-0.1c-0.6,0-1.6,0.1-1.8-0.1c0.1,0.3-0.3,0-0.3,0.2
		c-1.1-0.1-0.6-0.1-3.9-0.2l-1.5,0.2c-0.2,0,4.5-0.2,4.4,0c-3.2,0.2-7.6,0.1-11,0.3l2.2-0.3c0,0,0,0-0.1,0c0.7-0.1,1.7,0.2,1.6-0.1
		c-0.8,0-1.2-0.1-1.5,0.1c-0.2,0-0.5,0-0.8,0c-0.1-0.1-0.7-0.2-0.8,0c-1-0.1-2.2-0.2-3.8-0.2c0.1,0,0.1,0,0.1,0
		c-0.6,0-0.7,0-1.1-0.1c-0.1,0-0.4,0-0.4,0.1c0.2,0,0.5,0,0.7,0c-0.1,0-0.2,0-0.3,0l2.9,0.1c-0.4,0.1-0.9,0.1-1.4,0.1
		c0.2,0,0.3-0.1,0.3-0.2c-0.4,0.1-1.5,0-1.9,0.1c0.1,0,0.4,0.1,0.7,0.1c-1.6,0-3.5,0-5.5,0c0.8,0,1.7-0.1,2.3,0c0.2,0,0-0.2,0.3-0.3
		c0.9,0.1,1.5-0.1,2.3-0.1c0.1,0,0.3,0,0.5,0c0,0,0.1,0,0.2,0c0.1,0,0.2,0,0.3,0c1.1,0,2.5,0.1,2.9,0c0,0,0,0,0,0c0,0,0,0,0,0
		c0,0.1,0,0.1,0.1,0.2c0.1-0.1,0.4-0.1,0.7-0.1c0.1,0,0.3,0,0.6,0c-0.1,0,0-0.1,0.1-0.1c0.2,0,0.5,0,0.7,0c-0.1,0-0.1,0,0.1,0.1
		c0,0,0.1,0,0.2,0c0.2,0,0.3,0,0.4,0.1c0.1,0,0.2,0,0.2,0c0.2,0,0.4,0,0.6,0c-0.1-0.1,0.3,0,0.4-0.1c-0.2,0-0.5,0-0.7,0
		c0.2,0,0.4,0,0.7,0c0.5,0,0.6,0,0.9,0.1c0.1-0.1,1.8-0.1,2.1,0c0,0-0.1,0-0.1,0c0.3,0,0.7,0,1,0c0,0,0,0,0,0c-0.4,0-0.8,0-0.4,0.1
		c0.1,0,0.2,0,0.4,0c0.1,0,0.3,0,0.5,0c0.3,0,0.5,0,0.6,0c-0.1,0-0.2,0-0.2,0c0,0,0.1,0,0.1,0c0,0-0.1,0-0.1,0c0,0-0.1,0-0.2,0
		c0,0,0,0,0,0c0,0-0.1,0-0.1,0c2.9,0.1,5.4,0,7.5,0.1c1.9,0.1,4-0.2,5.8-0.1c0.8,0,1.5-0.1,2.2,0.1c3.6,0,7.3,0,11.1,0
		c0.1,0.1-0.2,0.1-0.1,0.3c0.5,0,0.3-0.2,0.8-0.2c0,0.1,0,0.2,0.4,0.2c-0.1-0.1-0.2-0.2,0.3-0.2c0,0.1-0.3,0.2,0.3,0.2
		c0.4,0-0.3-0.2,0.1-0.2c0.4,0,0.5,0.1,0.8,0.2c0.1-0.1,0.1-0.1,0.3-0.2c-0.1,0.1,0.3,0.1,0.4,0.2c0-0.1,0.1-0.2,0.4-0.2
		c0.1,0,0,0.2,0.4,0.2c0-0.1,0.3-0.1,0.5-0.2c0.2,0,0,0.2,0.3,0.2c0.3-0.1-0.2-0.1,0.1-0.2c0.2,0.1,0.3,0.2,0.3-0.1
		c0.8,0.4,1.4-0.1,3.1,0c-0.1,0.1-0.2,0.1,0,0.2c0.8-0.1,1.3-0.2,1.7-0.1c-0.4,0-0.8,0-1.1,0c0.3,0,0.8,0,1.2,0c0,0,0.1,0,0.1,0
		c0,0,0.1,0,0.1,0c0.5,0,1,0,1.2,0c-0.4,0-0.7,0-1,0c0.4-0.1,0.7-0.1,1.1,0c0.1,0,0.1-0.1,0.1-0.1c0.2,0,0.3,0,0.5,0
		c0.4,0.2,1.2,0,1.7,0.2c0.1,0,0.1-0.1,0.1-0.1c0.1,0,0.2,0,0.3,0c0,0,0.1,0.1,0.3,0.1c0.1,0,0.1,0,0.2-0.1c0.9,0,1.8,0,2.8,0
		c0,0,0,0.1,0.1,0.1c0,0,0,0,0.1-0.1c3.9,0.1,7.9,0.1,11.9,0.2c2.8,0.1,5.5,0.1,8.3-0.1c-0.7-0.1-1.7-0.1-2.4-0.2c1,0,2,0,3.1,0
		c0,0,0,0.1,0,0.1c0.3,0,0.4-0.1,0.6-0.1c1.3,0,2.6,0,3.9,0.1c0,0,0,0,0,0c0,0,0.1,0,0.1,0c5.4,0.1,11,0.2,16.6,0.3
		c0,0-0.3,0,0.2,0.1c0.7-0.1,2,0,1.5,0c3.3,0.1,6.3,0,9.4,0.3c-0.2-0.1,0.9,0,1.1-0.1c8.3,0.2,16.9,0.4,22.7,0.4c-0.5,0-1,0-1.1-0.1
		c0.6,0-0.2-0.1,0.4-0.1c0.4,0.1,1.3,0.1,1.1,0.2c1.5,0,3,0.1,4.5,0.1c0.2,0,0-0.1,0.6-0.1c4.2,0.1,8,0.2,12,0.3c-0.9,0-1.8,0-2.6,0
		c-3-0.1-7.5-0.2-9.4-0.2c3.3,0,6.1,0.2,8.1,0.2c-11.6,0.1-24.4,0.1-34.3,0l0.6,0.1c-1.3,0.1-4.5,0-4.6-0.1l-0.5,0.2
		c-4.5,0.1,2.2-0.8-2.8-0.7c2.6,0.1,0.4,0.5-1.5,0.5c0.4,0.1,0.4,0.4,1.4,0.4l2.7,0.2c0.1-0.4,4.6-0.2,6.1-0.1c0,0-0.1,0-0.2,0
		c-0.6,0-0.5,0-0.2,0c-0.9,0.2-2.2,0.3-3.9,0.1c-2,0-4,0-6,0c1,0.2,1.8,0.4,4.2,0.4c-2.2-0.1,1.5-0.1-0.4-0.3c2.2-0.1,5,0.3,8.8,0.2
		c-1.4,0-0.8-0.1-0.1-0.2c2.5,0.1,6.6,0,9.1,0.1c-0.1,0-0.1-0.1-0.1-0.1c2.2,0.1,2.9,0.1,5.4,0.3c9.3,0.3,22,0,29.9,0.4
		c2.5,0.2-2.6,0.2-1.6,0.3c7.8-0.4,10.6-0.9,10.6-1.5c0.8,0,1.7,0,2.8,0.1c-0.8-0.1-1.8-0.1-2.8-0.1c0-0.1-0.1-0.1-0.2-0.2
		c-0.4,0-0.9,0-1.3,0.1c0.1-0.1-0.1-0.2-1.4-0.2c-2,0.1-0.7,0.2-0.4,0.2c-0.4,0-0.9,0-1.3,0c-0.4,0-0.9-0.1-1.3-0.1c0.4,0,1,0,1.6,0
		c-14.9-0.6-30-0.6-44.8-1.1c-3.2-0.1-7.6-0.2-11.1-0.3c-1.1,0-2.2-0.1-3.4-0.1c0,0,0,0,0,0c3.3,0.1,6.6,0.1,10,0.2
		c2.6,0,5.8,0.2,9.2,0.2c0.9,0-0.9-0.1-1.7-0.1c-2.1-0.2-5-0.1-7.7-0.2c-1.1,0-2.2-0.1-3.2-0.1c-1.3,0-2.2-0.1-3.2-0.1
		c-2.4,0-4.7-0.1-7-0.1c0.6-0.2,2.2-0.1,2.7,0c0.7-0.2,3.3-0.1,5.2-0.1c-0.3,0.2,0.5,0.1,1,0.1c-0.2,0-0.4,0-0.4-0.1
		c2.9,0.1,5.4,0,7.5,0.1c1.9,0.1,4-0.2,5.8-0.1c0.8,0,1.5-0.1,2.2,0.1c12.7-0.1,26.4,0.2,40.9,0.5c2.8,0.1,5.5,0.1,8.3-0.1
		c-0.9-0.1-2.4-0.1-3-0.3c0.9,0.1,1.8,0,2.3-0.2c1.7,0,3-0.1,4.1-0.4C397.4,11,400,11,400,11V9V8V0H0z M55.5,13.3c0.6,0,1.1,0,1.4,0
		c-0.1,0-0.2,0-0.3,0C56.2,13.3,55.8,13.3,55.5,13.3z M48.8,13.3c0.3,0,0.5,0,0.7,0c0.1,0-0.5,0-1.4,0.1L48.8,13.3z M367.4,13.1
		c1.9,0,3.8,0.1,5.9,0.1C371.2,13.3,369,13.3,367.4,13.1z M379.8,13.3c-0.1,0-0.1,0-0.2,0c-0.1,0-0.1,0-0.2,0
		C379.5,13.3,379.7,13.3,379.8,13.3z M349.1,12.8c-1.1,0-0.9,0-1.7-0.1C347.5,12.7,349.4,12.7,349.1,12.8z M304.9,11.4
		C304.9,11.4,304.8,11.4,304.9,11.4C304.8,11.4,304.9,11.4,304.9,11.4z M305.5,11.3c0.1,0,0.2,0,0.2,0c0.1,0,0.1,0,0.2,0.1
		C305.8,11.4,305.6,11.4,305.5,11.3C305.5,11.3,305.5,11.3,305.5,11.3z M307,11.4C307,11.4,307,11.4,307,11.4c0.2,0,0.6,0,0.8,0
		c0.1,0,0.3,0,0.4,0c0.2,0.1,0.5,0,0.7,0.1C308.3,11.4,307.7,11.4,307,11.4z M207.4,11.6c-0.3,0-0.4-0.1-0.5,0.1c0.2,0,0.4,0,0.5,0
		c-0.3,0-0.6,0-0.9,0c0.1,0,0.1,0,0.2-0.1c-0.4,0-0.9-0.1-1.4-0.1C206,11.6,206.7,11.5,207.4,11.6C207.3,11.5,207.4,11.6,207.4,11.6
		z M200.5,11.4l-0.2,0c0,0-0.1-0.1-0.1-0.1C200.3,11.3,200.4,11.3,200.5,11.4C200.5,11.4,200.5,11.4,200.5,11.4
		C200.5,11.4,200.5,11.4,200.5,11.4z M199.2,11.5c-0.1,0-0.2,0-0.4,0.1c0,0,0,0-0.1,0c0,0,0,0,0,0c-0.3,0-0.6,0-0.9,0
		c-0.1,0-0.2-0.1-0.3-0.2c0,0.1,0,0.1-0.1,0.2c0.1-0.1-0.1-0.2,0-0.2c0.1,0,0.1,0,0.2,0c0.2,0,0.3,0.1,0.4,0.1c-0.2,0-0.3,0-0.5,0
		c0.3,0,0.6,0,0.8,0c0.1,0,0.2,0,0.3,0c0,0,0,0,0,0c0.3,0,0.5,0,0.2,0c0.6,0,0.4-0.1,0.6-0.1c0.2,0,0.3,0,0.4,0c0,0,0,0,0.1,0
		c0,0-0.2,0-0.2,0c0,0,0,0,0,0l-1.1,0L199.2,11.5z M198.5,11.4C198.5,11.4,198.5,11.4,198.5,11.4c0.1-0.1,0.2-0.1,0.3,0
		c0.1,0,0.2,0,0.3,0C198.9,11.4,198.7,11.4,198.5,11.4z M180.1,11.5c-0.2,0-0.3,0-0.4,0C179.8,11.5,179.9,11.5,180.1,11.5
		C180.1,11.5,180.1,11.5,180.1,11.5z M187.6,11.5C187.6,11.4,187.6,11.4,187.6,11.5c0.1,0,0.2,0,0.3,0c0,0,0,0,0,0
		C187.7,11.4,187.6,11.5,187.6,11.5z M190.3,11.4c0.2,0,0.4,0,0.5,0c-0.3,0-0.6,0-0.9,0C190,11.4,190.1,11.4,190.3,11.4z
		 M191.8,11.4C191.8,11.4,191.8,11.4,191.8,11.4C191.9,11.4,191.9,11.4,191.8,11.4C191.8,11.4,191.8,11.4,191.8,11.4z M178.1,11.5
		c-0.1,0-0.2,0-0.2,0C178,11.5,178,11.5,178.1,11.5C178.1,11.5,178.1,11.5,178.1,11.5z M179.2,11.6
		C179.2,11.6,179.2,11.6,179.2,11.6C179.3,11.6,179.3,11.6,179.2,11.6c0.1,0,0.2,0,0.2,0c0.4,0,1.4,0,2.3,0c0.2,0,0.4,0,0.5,0
		c-0.3,0-0.6,0-0.9,0C180.5,11.6,179.8,11.6,179.2,11.6C179.2,11.6,179.2,11.6,179.2,11.6z M188.9,11.4c0.1,0,0.1,0,0.2,0
		c0.1,0,0.2,0,0.4,0c0.1,0,0.1,0,0.2,0C189.4,11.4,189.2,11.4,188.9,11.4z M199.8,11.4C199.8,11.4,199.8,11.4,199.8,11.4
		C199.8,11.4,199.8,11.4,199.8,11.4c0,0,0.1,0,0.1,0c0.1,0,0.2,0.1,0.3,0.1l-0.2,0C200.1,11.4,200,11.4,199.8,11.4z M206.1,11.4
		c-0.5,0-0.9,0-1.4,0.1C205.1,11.4,205.9,11.3,206.1,11.4z M206.4,11.4C206.5,11.3,206.5,11.3,206.4,11.4c0.2-0.1,0.2-0.1,0.3-0.1
		c0,0,0.1,0,0.1,0.1C206.7,11.4,206.6,11.4,206.4,11.4z M209.2,11.3c-0.1,0-0.2,0-0.3,0C209,11.3,209.1,11.3,209.2,11.3
		C209.2,11.3,209.2,11.3,209.2,11.3z M2.8,9C2.8,9,2.9,9,2.8,9C2.3,9,2,9,2,9H2.8z M91,11.1c0-0.1,0-0.1,0-0.2c0.3,0,0.8,0,1.1-0.1
		c0.2,0.2,0.9,0,1,0.3C92.1,11,91.9,11,91,11.1z M172.2,11.8c0.1-0.1-0.3-0.1-0.7-0.2c0.1,0,0.2,0,0.4,0c0.3,0.2,0.6,0,1.1,0.2
		c0.1-0.1,0.5-0.2,0.8-0.1C174,11.6,174,11.7,172.2,11.8z M194.7,11.6l0.3-0.1c0.5,0.1,1.1-0.1,2-0.1c0.1,0.1,0,0.2-0.2,0.2
		C196.2,11.6,195.4,11.5,194.7,11.6z M198.7,11.7C198.7,11.7,198.7,11.7,198.7,11.7c-0.1,0-0.1,0-0.2,0L198.7,11.7z M199.2,11.7
		C199.2,11.7,199.2,11.7,199.2,11.7c0,0-0.1-0.1-0.1-0.1l1.2-0.1c0,0,0,0,0,0c0,0,0,0,0,0l0.3,0c0.1,0,0.2,0,0.5,0.1
		c0.2-0.1,0.3-0.1,0.9-0.2c0.1,0,0.1,0,0.1,0c-0.2,0-0.5,0-0.4,0.1c0.5,0.1,0.5-0.1,0.7-0.2c0.1,0.1,0.7,0.1,1,0.2
		c0,0,0-0.1,0.1-0.1c0.1,0,0.1,0,0.3,0c0,0,0.3,0,0.6,0c0.2,0,0.3,0.1,0.3,0.1C202.5,11.6,200.7,11.7,199.2,11.7z M201.1,11.9
		c0.3-0.2,2.1-0.2,4-0.3c-0.1,0-0.2,0-0.3,0c0.1,0,0.4,0.1,0.6,0.1c-0.6,0-1.2,0-1.7,0.1c1.1,0,2.1,0,2.3,0.1
		C205.1,12,202.6,11.9,201.1,11.9z M208,11.6C208,11.6,208,11.5,208,11.6c0.8-0.1,1.3-0.1,1.3-0.2c0.3,0,0.7,0,0.7,0.2
		C209.1,11.5,208.9,11.5,208,11.6z M217.8,11.3c0.1,0,0.1,0,0.2,0C217.9,11.3,217.9,11.3,217.8,11.3
		C217.8,11.3,217.8,11.3,217.8,11.3z M313.6,11.5C313.6,11.5,313.6,11.5,313.6,11.5C313.5,11.5,313.5,11.5,313.6,11.5
		c-1.5,0-2.8,0-4.2-0.1c0,0,0.1-0.1,0.1-0.1c0,0,0,0,0.1,0c0.2,0,0.5,0,0.7,0c2.1,0,4.3,0.1,6.5,0.1c0,0-0.1,0-0.1,0
		C315.6,11.5,314.6,11.5,313.6,11.5z M318.2,11.6c-0.3,0-0.6,0-0.9,0c0,0,0,0-0.1,0C317.6,11.6,317.9,11.6,318.2,11.6
		C318.2,11.6,318.2,11.6,318.2,11.6z M312.1,11.3c1-0.1,3.1,0.1,3.6,0c0,0,0,0.1,0,0.1C314.5,11.3,313.3,11.3,312.1,11.3z"/>
	<path class="st0" d="M345.7,12.1C342.9,12,343.7,12.1,345.7,12.1L345.7,12.1z"/>
	<path class="st0" d="M353,12.3C350.2,12.2,350.6,12.3,353,12.3L353,12.3z"/>
	<path class="st0" d="M239,11.5c-0.3,0-0.2,0.2,0.4,0.2C239.3,11.6,239.8,11.5,239,11.5z"/>
	<path class="st0" d="M247.2,11.5c-0.3,0-1.4,0-1.5,0C246.3,11.5,246.8,11.5,247.2,11.5z"/>
	<path class="st0" d="M209.3,12.8l3.1,0.1c-0.5,0.2,2.2,0.3,2.2,0.4c-0.1-0.4,4.2-0.1,6.6-0.1l0.9-0.3
		C219.8,12.7,214.1,12.8,209.3,12.8z"/>
	<polygon class="st0" points="229.3,12.6 221.2,12.8 224.6,12.9 	"/>
	<path class="st0" d="M228.5,13.2c0.4,0,0.8,0,1.2,0C229.3,13.2,228.9,13.2,228.5,13.2z"/>
	<path class="st0" d="M229.4,12.8c1,0.1,1.4,0.1,2.9,0.1c-2.5,0-5.9,0.1-8.9,0.2c1.3,0.2,3.1,0.1,5.1,0.1c-0.6,0-1-0.1,0-0.2
		c2.9,0.2,4.7-0.1,7.3,0.1l-2.6,0.1c0.3,0.2,5.3-0.2,5.2,0.2c3.5-0.3-2.6-0.3,1.9-0.5C236.1,12.9,233,12.8,229.4,12.8z"/>
	<path class="st0" d="M243,12.9c-0.3,0-0.3,0.1-0.2,0.1C243,13,243.2,13,243,12.9z"/>
	<path class="st0" d="M245.5,13.2c-0.6,0-2.4-0.1-2.7-0.1c-0.4,0.1-1.1,0.2-0.3,0.2c2.7,0,6.9,0,7.7-0.3
		C247.3,12.8,246.8,13,245.5,13.2z"/>
	<path class="st0" d="M253.8,12.9c-0.2,0-1.2,0.4-3.9,0.4c1.4,0.1,1.9,0,3.3,0l2-0.3l-1.3,0L253.8,12.9z"/>
	<path class="st0" d="M253.9,12c-1.4,0-2.6,0-3,0.1l0.2,0c0,0-2.8,0.1-4.7,0.3C249.4,12.2,254.6,12.5,253.9,12z"/>
	<path class="st0" d="M253.9,12C253.9,12,253.9,12,253.9,12c0.1,0,0.1,0,0.2,0C254,12,253.9,12,253.9,12z"/>
	<path class="st0" d="M258.9,12c-1.5,0-3.3,0-4.9,0C255.8,12.1,256.9,12,258.9,12z"/>
	<polygon class="st0" points="258.5,13.3 261.6,13.3 257.5,13.2 	"/>
	<path class="st0" d="M258,12.2c0.9,0-4.6,0-4.9,0.1c0.8,0,3.2-0.2,3.6,0.1C260,12.5,254.8,12.2,258,12.2z"/>
	<path class="st0" d="M267.7,13.3c1.3-0.1,3.5,0.2,5.2,0.1l0.7-0.1C270,13.5,269.3,12.9,267.7,13.3z"/>
	<path class="st0" d="M281,13.3c-1.2,0-1-0.2-1.8-0.2c-2.1,0.2-5.5,0-7.2,0.2c0.8,0,1,0,1.7,0c3.3,0.1,7.8-0.1,10.2,0.2
		c-0.6-0.2,1.4-0.4-1.5-0.4C281.8,13.2,280.8,13.2,281,13.3z"/>
	<path class="st0" d="M271.7,12C271.7,12,271.7,12,271.7,12C271.4,12,271.5,12,271.7,12z"/>
	<path class="st0" d="M264.1,12.2l-1.1,0.2c1.9-0.1,3.1,0,4.2,0C266.4,12.4,266.8,12.2,264.1,12.2z"/>
	<path class="st0" d="M272.6,12.4l-2.9-0.1c0.9-0.2,3.6,0,4.1-0.2c-0.1-0.1-1.6-0.1-2.1-0.2c-0.6,0.3-3.8,0-2.4,0.5
		C270.2,12.5,271.2,12.5,272.6,12.4z"/>
	<path class="st0" d="M269.3,12.5C269.2,12.5,269.2,12.5,269.3,12.5c-0.7,0-1.4,0-2.1,0C267.5,12.5,268.1,12.5,269.3,12.5z"/>
	<path class="st0" d="M284.6,12.4c1.1,0,2.4,0.1,3.6,0.1C287.1,12.5,285.9,12.4,284.6,12.4L284.6,12.4z"/>
	<path class="st0" d="M282.4,12.4c-0.2,0-0.5,0-0.7,0C281.9,12.3,282.2,12.3,282.4,12.4z"/>
	<path class="st0" d="M282.5,12.6l-1.4-0.2l-3.7,0.3c2.8-0.2,6,0.2,6.6-0.2l1.4,0.1l-0.8-0.2c-0.8,0-1.6-0.1-2.2-0.1
		C283.4,12.4,283.9,12.5,282.5,12.6z"/>
	<path class="st0" d="M313.5,13.2c2.5-0.2-2.4-0.1-2.6-0.2c0.7-0.4,2.4,0.2,3.5-0.1c0.3-0.3-5.1-0.3-7.3-0.4c-1.9,0-1.9,0.1-2.4,0.3
		c-0.5-0.1-2.4-0.2-2.9-0.3c-3.9,0.2-6-0.2-9.8,0c-0.2,0-0.2,0-0.2-0.1l-0.3,0l0.2,0c-1,0.1-2.2,0.1-3.5,0.1
		c3.4,0.2,6.1,0.5,8.5,0.6c0.1,0,0.1,0,0.1,0c-2,0.2-5.7-0.4-5.6-0.1c2,0.2,6.5,0.2,7.2,0.3c0.6-0.1-1.1-0.2,0.5-0.2
		c2.5,0.1,2.2,0.2,3.7,0.3l1.4-0.2c0.2,0.3,2.8,0.2,5.6,0.2c-3.3-0.1-6.7-0.3-10.4-0.3C304,12.9,308.5,13.3,313.5,13.2z"/>
	<path class="st0" d="M291.8,12.4l1.8,0C294.7,12.4,291.8,12.3,291.8,12.4z"/>
	<path class="st0" d="M277.7,12.3l-2.1,0C276.8,12.4,277.4,12.3,277.7,12.3z"/>
	<path class="st0" d="M277.7,12.3l3,0l-0.8-0.2C276.6,12,278.5,12.2,277.7,12.3z"/>
	<path class="st0" d="M313.9,12.8c1.7,0,2.6,0.1,2.2,0.2C317.7,12.9,315.8,12.7,313.9,12.8z"/>
	<path class="st0" d="M340,14.3c-0.3,0-1.1-0.1-2-0.1C338.1,14.3,338.7,14.3,340,14.3z"/>
	<path class="st0" d="M294.2,13.4c-0.4,0-0.8,0-1.3,0C293.3,13.4,293.8,13.4,294.2,13.4z"/>
	<path class="st0" d="M322.3,14C322.3,14,322.3,14,322.3,14l-0.3,0C322.1,14,322.2,14,322.3,14z"/>
	<path class="st0" d="M205.9,13.2C205.9,13.2,205.9,13.2,205.9,13.2c-0.6,0-1.1,0-1.7,0C204.7,13.3,205.2,13.3,205.9,13.2z"/>
	<path class="st0" d="M204,12.8c4.1,0.2-0.8,0.1,2,0.4c1.8,0,3.5-0.1,5.2-0.1C207.2,13.2,206.8,12.7,204,12.8z"/>
	<path class="st0" d="M211.1,13.2c0.3,0,0.6,0,0.9,0C211.8,13.1,211.4,13.1,211.1,13.2z"/>
	<path class="st0" d="M244.9,12.5c-0.1,0-0.1,0-0.2,0C245,12.5,245.2,12.5,244.9,12.5z"/>
	<path class="st0" d="M82.2,12.5c1.2,0,3.5,0.2,4,0C85.3,12.4,83.6,12.6,82.2,12.5z"/>
	<path class="st0" d="M86,11.6c0.2,0,0.4,0,0.7,0C86.5,11.5,86.3,11.5,86,11.6L86,11.6z"/>
	<path class="st0" d="M86,11.7l0-0.1C85.7,11.6,85.5,11.7,86,11.7z"/>
	<path class="st0" d="M91.5,11.6l-2.7,0c0-0.2,0.1-0.2,1.8-0.2c-0.4-0.1-1.9,0-2.8,0.1l0.6,0c-0.4,0-1.1,0.1-1.7,0.1
		C89.2,11.6,91,12,91.5,11.6z"/>
	<path class="st0" d="M92.5,11.7l2.8-0.2C94.3,11.4,91.8,11.5,92.5,11.7z"/>
	<path class="st0" d="M99.5,11.7c-3.2-0.1-1.4,0.1-3.3,0.2c0.6,0,1.1,0,1.5,0C96.1,11.7,98.8,11.8,99.5,11.7z"/>
	<path class="st0" d="M96.2,11.9c-0.3,0-0.5,0-0.8,0C95.7,11.9,96,11.9,96.2,11.9z"/>
	<path class="st0" d="M66.9,12.8l0.2,0.1C67.3,12.9,67.3,12.9,66.9,12.8z"/>
	<path class="st0" d="M105.1,11.9l0.2,0c0.3,0,0.5,0,0.8,0L105.1,11.9z"/>
	<path class="st0" d="M115,11.6L115,11.6C115,11.6,115,11.6,115,11.6z"/>
	<path class="st0" d="M314.6,13.5c-1.4-0.1-3.2-0.1-5-0.1c2.7,0.1,5.2,0.2,7.8,0.3c-0.6-0.1-1.4-0.2-2.6-0.3
		C314.6,13.5,314.5,13.5,314.6,13.5z"/>
	<path class="st0" d="M322.2,13l0.1,0C322.2,13,322.2,13,322.2,13z"/>
</g>
</svg>
