<?xml version="1.0" encoding="utf-8"?>
<!-- Generator: Adobe Illustrator 21.1.0, SVG Export Plug-In . SVG Version: 6.00 Build 0)  -->
<svg version="1.1" id="Layer_1" xmlns="http://www.w3.org/2000/svg" xmlns:xlink="http://www.w3.org/1999/xlink" x="0px" y="0px"
	 viewBox="0 0 300 300" style="enable-background:new 0 0 300 300;" xml:space="preserve">
<style type="text/css">
	.st0{fill:#FFFFFF;}
</style>
<path class="st0" d="M59.6,76.2c-14.5,18.5-23.5,41.1-24.4,64.6c3.7-28.9,12.3-47.7,34.4-71.3c-16.7,19.7-36.4,56-27.7,100.4
	c2.6,12.6,7.7,24.2,14.1,34.7c6.7,10.9,15.3,21.5,25.9,29.9c13.7,10.7,29.6,17.4,45.8,20.7c25.2,5,52.7,0.7,75.5-12.7
	c22.8-13.2,40.7-35.1,48.6-60.3c8.1-25.1,6.6-53-3.7-76.6c-10-23.9-29-43-50.9-54.4c5.4,2.2,13.3,6.9,15.8,8.3
	C187.9,39.2,141.8,33,112.5,44.9c16.7-7.4,40.1-8,51.1-6.1c-0.4,0.2-4.1-0.5-6.8-0.5c4.8,0.8,14.1,1.5,17.9,2.5
	c-8.4-2.9-26.1-4.3-38.3-2.9c3.8-1.4,19-1.2,25.1-0.7c-27.9-5.2-70.3,7-93,31.3C80.4,55.6,96.1,44,117.4,37.4
	c22.1-6.5,48.7-7,73.7,2.7c24.9,9.5,47.9,28.5,61.6,54.2c13.7,25.6,17.5,57.2,9.4,86.2c-7.9,29.1-27.8,54.6-53.6,69.7
	c-33.7,21.5-89.3,23.3-128.2-6.4c-19.4-14-34.1-34.4-41.3-56.1c-7.6-21.6-7.7-44.3-3.3-63.4C41.6,101.4,49.5,88,59.6,76.2z"/>
<g>
	<path class="st0" d="M189.7,111.3c2.2,0.3,7.1,0.3,11.4,4.8c0,0,3.5,3.4,4.5,11.3c1.2,9.2,1.1,18.3,1.1,18.3v8.6
		c0,0,0.1,9.2-1.1,18.3c-1,7.8-4.5,11.3-4.5,11.3c-4.3,4.5-9.2,4.5-11.4,4.7c0,0-15.8,1.2-39.7,1.2c-29.5-0.3-38.5-1.1-38.5-1.1
		c-2.5-0.4-8.2-0.3-12.5-4.8c0,0-3.5-3.5-4.5-11.3c-1.2-9.2-1.1-18.3-1.1-18.3v-8.6c0,0-0.1-9.2,1.1-18.3c1-7.8,4.5-11.3,4.5-11.3
		c4.3-4.6,9.2-4.6,11.4-4.8c0,0,15.8-1.1,39.7-1.1C173.8,110.2,189.7,111.3,189.7,111.3z M168.9,148.9l-30.6-16v31.8L168.9,148.9z"
		/>
</g>
</svg>
