<?xml version="1.0" encoding="utf-8"?>
<!-- Generator: Adobe Illustrator 21.1.0, SVG Export Plug-In . SVG Version: 6.00 Build 0)  -->
<svg version="1.1" id="Layer_1" xmlns="http://www.w3.org/2000/svg" xmlns:xlink="http://www.w3.org/1999/xlink" x="0px" y="0px"
	 viewBox="0 0 70 70" style="enable-background:new 0 0 70 70;" xml:space="preserve">
<style type="text/css">
	.st0{fill:#FFFFFF;}
	.st1{fill:#D81313;}
</style>
<g>
	<path class="st0" d="M1,66.6c0.8,0.9,1.8,1.5,3,1.9c0.2-0.1,6.2-0.7,6.2-0.7l7.1,0.2l9.7-0.1l5.9,0.5l6.6-0.4l19.9,0.3l1.4,0.4
		c0.1-0.1,4.4-0.7,4.9-0.6c1-0.5,1.8-1.2,2.4-2c0.4-2,0.1-5.2,0.1-5.2l0.4-5.3l-0.6-2.9V51L67.3,41l1.2-10.7l-0.5-9.5l1.3-6.6
		c0,0,0.1-6.4,0.2-9.6c-0.1-1-0.3-1.9-0.8-2.7c-1.1-0.2-2.1,0.2-3.2,0.1c-3-0.2-5.8-0.4-8.6-0.5L45.2,2.6L27.6,1.9
		C27.6,1.9,27.5,2,27.4,2c0,0,0-0.1,0-0.1L25,1.8L7.9,1.5L7.2,1.8L4.7,1.4l-1.9,0L2.1,2.1l-0.7,1L0.9,8l-0.2,4.8
		c0,0,0.5,4.6,0.9,6.8c0.1,0.6,0,1,0,1.7c0.2,3.1,0.8,9.9,0.8,9.9L1.7,42l-0.1,4.2l-1,4.6l0.2,6.5l-0.2,2.1l0.5,4.3L1,66.6z"/>
</g>
<title>Group 17</title>
<desc>Created with Sketch.</desc>
<g id="Mockup">
	<g id="Home---Single-Page" transform="translate(-303.000000, -480.000000)">
		<g id="Infos" transform="translate(-33.000000, 481.000000)">
			<g id="Conference" transform="translate(257.000000, 0.000000)">
				<g id="Group">
					<g id="Group-17" transform="translate(81.000000, 0.000000)">
						<path id="Shape" class="st1" d="M44,38.6L42.1,37c-2.3,2.6-5.6,4.1-9.1,4.1s-6.8-1.5-9.1-4.1L22,38.6c2.5,2.9,6,4.6,9.7,4.9v6
							h-2.8V52h8.3v-2.5h-3v-6C38,43.2,41.5,41.5,44,38.6z"/>
						<path id="Shape_1_" class="st1" d="M32.5,39c3.6,0,6.5-3,6.5-6.7v-9.7c0-3.7-2.9-6.7-6.5-6.7S26,19,26,22.7v9.6
							C26,36,28.9,39,32.5,39z M28.5,22.7c0-2.3,1.8-4.1,4-4.1c2.2,0,4,1.8,4,4.1v9.6c0,2.3-1.8,4.1-4,4.1c-2.2,0-4-1.8-4-4.1V22.7z
							"/>
					</g>
				</g>
			</g>
		</g>
	</g>
</g>
</svg>
