<?xml version="1.0" encoding="utf-8"?>
<!-- Generator: Adobe Illustrator 21.1.0, SVG Export Plug-In . SVG Version: 6.00 Build 0)  -->
<svg version="1.1" id="Layer_1" xmlns="http://www.w3.org/2000/svg" xmlns:xlink="http://www.w3.org/1999/xlink" x="0px" y="0px"
	 viewBox="0 0 200 200" style="enable-background:new 0 0 200 200;" xml:space="preserve">
<style type="text/css">
	.st0{fill:#FFFFFF;}
</style>
<g>
	<path class="st0" d="M195.7,58.8l1.5,27.7l-3.4,31l2.3,28.9v4.9l1.8,8.3l-1.3,15.4c0,0,1,9.3-0.3,15c-1.8,2.5-4.2,4.6-7,5.9
		c-1.5-0.2-14,1.7-14.3,1.9l-4.1-1.3l-57.8-0.7L93.9,197l-17.3-1.4l-28.1,0.2l-20.6-0.6c0,0-17.6,1.5-18.1,1.9
		c-3.4-1-6.3-2.9-8.6-5.4l0.2-8L0,171.2V200h200V11.9c-0.2,9.3-0.5,27.8-0.5,27.8L195.7,58.8z"/>
	<path class="st0" d="M0,0v171.2l0.7-6.3L0,146l2.8-13.3L3,120.5l2.4-31.4c0,0-1.6-19.8-2.3-28.9c0-2,0.4-3,0-4.9
		c-1.3-6.4-2.8-19.8-2.8-19.8l0.7-14L2.2,7.4l2.1-3l2-2.3l5.5,0l7.3,1.2l2-0.9l49.8,0.9L78,3.6c0,0.1,0,0.3,0,0.4
		c0.3,0,0.5-0.2,0.6-0.4l51,2L163.4,3c8.1,0.4,16.5,0.9,25.1,1.5c3.1,0.2,6-1,9.3-0.3c1.2,2.3,2,4.9,2.2,7.7V0H0z"/>
</g>
</svg>
