<?xml version="1.0" encoding="utf-8"?>
<!-- Generator: Adobe Illustrator 21.1.0, SVG Export Plug-In . SVG Version: 6.00 Build 0)  -->
<svg version="1.1" id="Calque_1" xmlns="http://www.w3.org/2000/svg" xmlns:xlink="http://www.w3.org/1999/xlink" x="0px" y="0px"
	 viewBox="0 0 100 100" style="enable-background:new 0 0 100 100;" xml:space="preserve">
<style type="text/css">
	.st0{fill:none;}
	.st1{fill:#FFFFFF;}
</style>
<title>Untitled-1</title>
<path class="st0" d="M-5.5,77c0,0.7,0.2,0.8,0.9,0.8c3.3,0,6.6,0,10,0c0.2,0,0.5,0,0.7-0.1v-7.1H-5.5C-5.5,72.8-5.5,74.9-5.5,77z"/>
<path class="st0" d="M33.8,22.2c0,1,0,2,0,3h11.6c0-2.3,0-4.5,0-6.7c-0.1-0.2-0.3-0.4-0.6-0.4c-3.5,0-6.9,0-10.4,0
	c-0.3-0.1-0.6,0.1-0.7,0.4c0,0.1,0,0.2,0,0.3C33.8,19.9,33.8,21.1,33.8,22.2z"/>
<path class="st0" d="M5.9,18.1c-3.5,0-7,0-10.5,0c-0.2,0-0.4,0.2-0.5,0.4c0,2.2,0,4.4,0,6.7c0.1,0,0.2,0.1,0.4,0.1
	c3.6,0,7.2,0,10.8,0c0.3-0.1,0.4-0.3,0.5-0.6c0-2,0-4,0-6c0-0.3-0.1-0.5-0.4-0.6C6,18.1,5.9,18.1,5.9,18.1z"/>
<path class="st0" d="M64.2,18.1c-1.9,0-3.8,0-5.7,0h-5.2v7.2h11c0.5,0,0.5-0.4,0.5-0.7c0-1.9,0-3.9,0-5.8c0.1-0.3-0.1-0.6-0.4-0.7
	C64.4,18.1,64.3,18.1,64.2,18.1z"/>
<path class="st0" d="M72.5,77.7H84v-7H72.5V77.7z"/>
<path class="st0" d="M53,70.7c0,2.3,0,4.5,0,6.7c0.1,0.2,0.3,0.4,0.5,0.4c3.5,0,7.1,0,10.6,0c0.2,0,0.4-0.2,0.5-0.4
	c0-2.2,0-4.4,0-6.7H53z"/>
<path class="st0" d="M13.9,76.9c-0.1,0.4,0.1,0.7,0.5,0.9c0.1,0,0.3,0,0.4,0c3.3,0,6.7,0,10,0c0.2,0,0.5,0,0.7-0.1v-7H13.9
	C13.9,72.8,14,74.9,13.9,76.9z"/>
<path class="st0" d="M83.6,18.1c-3.3,0-6.7,0-10,0c-0.3,0-0.5,0-0.8,0v7.1c0.1,0,0.3,0.1,0.4,0.1c3.5,0,7.1,0,10.6,0
	c0.5,0,0.6-0.2,0.6-0.7c0-1.9,0-3.8,0-5.7c0.1-0.4-0.2-0.7-0.6-0.8C83.7,18.1,83.7,18.1,83.6,18.1z"/>
<path class="st0" d="M33.4,71.3c0,1.9,0,3.8,0,5.7c0,0.7,0.2,0.8,0.8,0.8c3.3,0,6.7,0,10,0c0.2,0,0.5,0,0.8-0.1v-7.1H33.5
	C33.5,70.9,33.4,71.1,33.4,71.3z"/>
<path class="st0" d="M25.1,18.1c-3.4,0-6.7,0-10,0c-0.2,0-0.5,0-0.8,0c0,2.3,0,4.5,0,6.7c0.1,0.2,0.4,0.4,0.6,0.4
	c3.4,0,6.8,0,10.3,0c0.3,0.1,0.7-0.1,0.8-0.4c0-0.1,0-0.2,0-0.3c0-1.9,0-3.7,0-5.6c0.1-0.4-0.1-0.8-0.5-0.9
	C25.4,18,25.3,18,25.1,18.1z"/>
<path class="st1" d="M98.7,18.2c-1.4-2.3-4-3.6-6.7-3.4h-8.4c-25.1,0-50.2,0-75.3,0c-2.9,0-5.3,0.9-6.9,3.4c-0.5,1-0.9,2-1.3,3.1
	v57.4c0.3,1.1,0.8,2.1,1.3,3.1c1.4,2.2,3.9,3.5,6.5,3.4H9c27.5,0,55.1,0,82.6,0c2.9,0,5.4-0.9,7-3.4c0.5-1,0.9-2,1.3-3.1V21.3
	C99.6,20.2,99.2,19.2,98.7,18.2z M45.2,20.2c3.5,0,6.9,0,10.4,0c0.3,0,0.5,0.2,0.6,0.4c0,2.2,0,4.4,0,6.7H44.5c0-1,0-2,0-3
	s0-2.3,0-3.4c-0.1-0.3,0.1-0.6,0.4-0.7C45,20.2,45.1,20.2,45.2,20.2z M16.8,79.8c-0.2,0-0.5,0.1-0.7,0.1c-3.3,0-6.6,0-10,0
	c-0.6,0-0.9-0.1-0.9-0.8c0-2.1,0-4.1,0-6.3h11.6V79.8L16.8,79.8z M17.2,26.8c-0.1,0.3-0.2,0.5-0.5,0.6c-3.6,0-7.2,0-10.8,0
	c-0.1,0-0.3,0-0.4-0.1c0-2.2,0-4.5,0-6.7c0.1-0.2,0.3-0.4,0.5-0.4c3.5,0,7,0,10.5,0c0.3-0.1,0.5,0.1,0.6,0.4c0,0.1,0,0.2,0,0.2
	C17.2,22.8,17.2,24.8,17.2,26.8L17.2,26.8z M36.3,79.8c-0.3,0-0.5,0.1-0.7,0.1c-3.3,0-6.7,0-10,0c-0.4,0.1-0.7-0.1-0.9-0.5
	c0-0.1,0-0.3,0-0.4c0-2.1,0-4.1,0-6.3h11.6L36.3,79.8L36.3,79.8z M36.7,26.7c0.1,0.3-0.1,0.7-0.4,0.8c-0.1,0-0.2,0-0.3,0
	c-3.4,0-6.9,0-10.3,0c-0.3,0-0.5-0.2-0.7-0.4c0-2.2,0-4.4,0-6.7c0.4,0,0.6,0,0.8,0c3.4,0,6.7,0,10,0c0.4-0.1,0.7,0.1,0.9,0.5
	c0,0.1,0,0.3,0,0.4C36.7,22.9,36.7,24.8,36.7,26.7z M55.8,79.8c-0.3,0-0.5,0.1-0.8,0.1c-3.3,0-6.7,0-10,0c-0.6,0-0.8-0.1-0.8-0.8
	c0-1.9,0-3.8,0-5.7c0-0.2,0-0.4,0.1-0.7h11.5V79.8L55.8,79.8z M57,52.7l-11.5,7.1c-2.3,1.5-4.2,0.4-4.2-2.3V42.5
	c0-2.8,1.9-3.8,4.2-2.3L57,47.3C59.3,48.8,59.3,51.2,57,52.7z M75.3,79.5c-0.1,0.2-0.3,0.4-0.5,0.4c-3.5,0-7.1,0-10.6,0
	c-0.2,0-0.4-0.2-0.5-0.4c0-2.2,0-4.4,0-6.7h11.6C75.3,75.1,75.3,77.3,75.3,79.5z M75.7,26.7c0,0.4,0,0.7-0.5,0.7h-11v-7.2h5.2
	c1.9,0,3.8,0,5.7,0c0.3-0.1,0.6,0.1,0.7,0.4c0,0.1,0,0.2,0,0.3C75.6,22.9,75.7,24.8,75.7,26.7z M94.8,79.8H83.2v-7h11.5V79.8z
	 M95.2,26.8c0,0.4-0.1,0.7-0.6,0.7c-3.5,0-7.1,0-10.6,0c-0.1,0-0.3,0-0.4-0.1v-7.1c0.3,0,0.6,0,0.8,0c3.3,0,6.7,0,10,0
	c0.4-0.1,0.7,0.1,0.9,0.5c0,0.1,0,0.3,0,0.4C95.1,23,95.2,24.9,95.2,26.8z"/>
</svg>
