<?xml version="1.0" encoding="utf-8"?>
<!-- Generator: Adobe Illustrator 21.1.0, SVG Export Plug-In . SVG Version: 6.00 Build 0)  -->
<svg version="1.1" id="Calque_1" xmlns="http://www.w3.org/2000/svg" xmlns:xlink="http://www.w3.org/1999/xlink" x="0px" y="0px"
	 viewBox="0 0 100 100" style="enable-background:new 0 0 100 100;" xml:space="preserve">
<style type="text/css">
	.st0{fill:#FFFFFF;}
</style>
<g>
	<circle class="st0" cx="50" cy="55.3" r="13.2"/>
	<path class="st0" d="M88.7,29.5H64.4l-4-9.4c-0.3-0.7-1-1.1-1.8-1.1H41.4c-0.8,0-1.5,0.4-1.8,1.1l-4,9.4H25.5v-1.1
		c0-0.8-0.7-1.5-1.5-1.5h-7c-0.8,0-1.5,0.7-1.5,1.5v1.1h-4.3c-1.7,0-3,1.3-3,3v45.6c0,1.7,1.3,3,3,3h77.5c1.7,0,3-1.3,3-3V32.5
		C91.7,30.8,90.4,29.5,88.7,29.5z M50,73.1c-9.8,0-17.8-8-17.8-17.8s8-17.8,17.8-17.8s17.8,8,17.8,17.8C67.8,65.1,59.8,73.1,50,73.1
		z M81.8,42.2c-1.7,0-3.1-1.4-3.1-3.1c0-1.7,1.4-3.1,3.1-3.1c1.7,0,3.1,1.4,3.1,3.1C84.9,40.8,83.5,42.2,81.8,42.2z"/>
</g>
</svg>
