<?xml version="1.0" standalone="no"?>
<!DOCTYPE svg PUBLIC "-//W3C//DTD SVG 20010904//EN"
 "http://www.w3.org/TR/2001/REC-SVG-20010904/DTD/svg10.dtd">
<svg version="1.0" xmlns="http://www.w3.org/2000/svg"
 width="16.000000pt" height="16.000000pt" viewBox="0 0 16.000000 16.000000"
 preserveAspectRatio="xMidYMid meet">
<metadata>
Created by potrace 1.11, written by Peter Selinger 2001-2013
</metadata>
<g transform="translate(0.000000,16.000000) scale(0.006154,-0.006154)"
fill="#000000" stroke="none">
<path d="M57 2568 c-22 -29 -28 -50 -36 -143 -16 -169 -15 -298 2 -435 20
-147 48 -515 45 -580 -1 -40 -2 -38 -9 20 -6 61 -7 59 -6 -30 2 -205 -15 -517
-33 -615 -20 -106 -21 -325 -4 -588 7 -114 8 -119 36 -142 42 -36 67 -39 192
-27 68 6 238 8 441 5 182 -3 557 -5 835 -4 278 1 568 -3 645 -8 108 -8 160 -7
229 3 84 12 92 16 126 53 l37 39 6 204 c3 114 2 234 -4 270 -5 36 -16 158 -24
273 -15 202 -15 213 6 410 20 181 21 221 12 390 -10 180 -9 193 14 305 20 99
24 150 26 337 3 271 1 276 -90 268 -32 -3 -130 0 -218 5 -134 9 -196 8 -382
-8 -181 -14 -259 -16 -420 -9 -591 25 -975 34 -1233 28 -8 -1 -49 2 -91 6
l-76 8 -26 -35z m693 -709 c47 -5 240 -12 430 -15 339 -6 580 2 783 28 48 6
90 8 93 5 7 -7 -95 -257 -114 -279 -13 -15 -34 -18 -141 -18 -69 0 -121 -4
-115 -8 7 -4 20 -55 29 -114 l18 -108 92 0 c64 0 96 -4 103 -13 15 -18 114
-278 108 -284 -2 -3 -79 5 -171 17 -92 12 -169 19 -172 17 -2 -3 16 -13 41
-23 l45 -19 22 -120 c12 -66 27 -150 34 -187 7 -37 10 -70 7 -73 -3 -3 -54 -5
-114 -5 -83 0 -110 3 -114 14 -3 7 -26 105 -53 217 l-47 204 -214 0 -214 0
-47 -204 c-27 -112 -50 -210 -53 -217 -4 -11 -31 -14 -114 -14 -60 0 -111 2
-114 5 -3 3 0 36 7 73 7 37 22 121 34 187 l22 120 45 19 c25 10 43 20 40 23
-2 2 -73 -5 -156 -17 -84 -11 -155 -19 -158 -16 -3 3 19 70 49 148 l54 143 86
3 86 3 18 107 c9 59 22 110 29 114 6 4 -46 8 -115 8 -107 0 -128 3 -141 18
-13 15 -118 262 -118 278 0 4 28 3 63 -1 34 -4 100 -11 147 -16z"/>
<path d="M1196 1563 c-9 -33 -46 -194 -46 -204 0 -5 65 -9 150 -9 85 0 150 4
150 9 0 10 -37 171 -46 204 -5 15 -19 17 -104 17 -85 0 -99 -2 -104 -17z"/>
<path d="M1803 2583 c9 -2 25 -2 35 0 9 3 1 5 -18 5 -19 0 -27 -2 -17 -5z"/>
<path d="M1653 2573 c15 -2 39 -2 55 0 15 2 2 4 -28 4 -30 0 -43 -2 -27 -4z"/>
<path d="M22 1710 c0 -19 2 -27 5 -17 2 9 2 25 0 35 -3 9 -5 1 -5 -18z"/>
<path d="M32 1635 c0 -16 2 -22 5 -12 2 9 2 23 0 30 -3 6 -5 -1 -5 -18z"/>
<path d="M42 1555 c0 -16 2 -22 5 -12 2 9 2 23 0 30 -3 6 -5 -1 -5 -18z"/>
<path d="M2552 1220 c0 -19 2 -27 5 -17 2 9 2 25 0 35 -3 9 -5 1 -5 -18z"/>
<path d="M2542 1155 c0 -16 2 -22 5 -12 2 9 2 23 0 30 -3 6 -5 -1 -5 -18z"/>
<path d="M1708 3 c56 -2 148 -2 205 0 56 1 10 3 -103 3 -113 0 -159 -2 -102
-3z"/>
</g>
</svg>
