<?xml version="1.0" encoding="utf-8"?>
<!-- Generator: Adobe Illustrator 21.1.0, SVG Export Plug-In . SVG Version: 6.00 Build 0)  -->
<svg version="1.1" id="logo-on-black" xmlns="http://www.w3.org/2000/svg" xmlns:xlink="http://www.w3.org/1999/xlink" x="0px"
	 y="0px" viewBox="0 0 318 308.2" style="enable-background:new 0 0 318 308.2;" xml:space="preserve">
<style type="text/css">
	.st0{fill:#D81313;}
	.st1{fill:none;}
	.st2{fill:#FFFFFF;}
</style>
<title>dojo-esport-final</title>
<g id="logo">
	<g id="square-sigle">
		<g id="square">
			<path class="st0" d="M3.7,298c3.7,4.1,8.3,6.9,13.5,8.5c0.9-0.6,28.5-2.9,28.5-2.9l32.4,1l44.2-0.4l27.1,2.1l30.3-1.8l90.9,1.1
				l6.5,2.1c0.5-0.2,20.1-3.2,22.5-2.9c4.4-2.2,8.2-5.4,11.1-9.3c2-9,0.4-23.6,0.4-23.6l2-24.2l-2.8-13v-7.7l-3.7-45.4l5.3-48.7
				l-2.5-43.5l5.9-30.1c0,0,0.6-29.1,0.9-43.7c-0.2-4.3-1.5-8.3-3.4-12.2c-5.2-1.1-9.7,0.7-14.6,0.5c-13.5-0.9-26.6-1.7-39.4-2.3
				l-53.2,4.2l-80.2-3.2c-0.2,0.4-0.6,0.6-1,0.6V2.3l-11.2-0.5L35,0.5L31.8,2L20.3,0.1L11.7,0L8.5,3.6L5.3,8.3l-2,22.2l-1.1,22
				c0,0,2.2,21,4.3,31.1c0.6,2.9,0.1,4.5,0,7.7c1.1,14.4,3.7,45.4,3.7,45.4l-3.7,49.4l-0.4,19.3l-4.4,20.9l1,29.7l-1.1,9.8l2.2,19.8
				L3.7,298z"/>
			<g id="line">
				<line class="st1" x1="312.4" y1="151.8" x2="308.1" y2="182.5"/>
				<path class="st0" d="M308.5,182c0.1-1,0.2-2,0.2-2.9c-0.2,1.2-0.5,2.1-0.6,3.4c0-1.6,0-3.2,0.2-4.8c0.1-0.6,0.1-1.1,0.1-1.7
					c0-0.6,0.1-1.2,0.2-1.7c0.1-0.5,0.1-1.6,0.2-2.3c0.6-4.7,1.2-9.7,2.1-14c0,0.2,0,0.5,0,0.9c0.2-1.4,0.5-3.3,0.7-4.7
					c0,0.7-0.1,1.8-0.2,2.3c0-0.1,0-0.2,0-0.2c-0.1,0.2-0.1,0.5-0.1,0.7c0.1-0.4,0.2-1.1,0.2-1.7c0,0.1-0.1,0.9-0.1,1.1
					c0.2-1.2,0.6-2.9,0.7-4.3c0,0.7,0,1.6-0.1,2.5c-0.4,3.9-1.2,9.1-1.8,14.1c-0.5,3.3-1.1,8-1.7,11.3
					C308.7,180.7,308.6,181.4,308.5,182z"/>
			</g>
			<g id="line-2">
				<line class="st1" x1="246.3" y1="307.5" x2="170.5" y2="307.6"/>
				<path class="st0" d="M175.1,307.9c1.5,0-0.1,0-0.9,0H175.1z M172.8,307.9c0.2,0,0.9,0,1.2,0
					C173.5,307.9,173.2,307.9,172.8,307.9L172.8,307.9z M170.5,307.9c0.5,0,1.4,0,2.2,0C172.3,307.9,171.1,307.9,170.5,307.9
					L170.5,307.9z M184,307.8c0.7,0,2.5,0,0.9,0C184.5,307.8,184.1,307.8,184,307.8L184,307.8z M186.8,307.9c0.9-0.1,2,0,3.1,0
					c-0.7-0.1-2.5,0-3.9,0c-0.4,0,1.2,0,1.7,0c-3.4,0-6.3,0-9-0.1c1.8-0.1,3.2,0,4.7-0.1c0.4,0-0.5,0-0.1,0c6.3,0,12.3-0.1,18.8-0.1
					c3.3,0,7.5,0,11.3,0c0.2,0,0.2,0,0.6-0.1c3.2,0,6,0,9.7-0.1c4.5,0,8.6-0.2,12.8-0.4c2.8-0.1,5.8,0,8.6,0.2c0.2,0,0,0-0.1,0h0.9
					c-1.8,0,0.6,0.2,0.6,0.4c0,0.1-3.2,0.2-5.2,0.4c-0.7,0-1,0-2,0c-1.6,0-3.4,0.1-5.2,0.1c-2.8,0.1-6,0.1-9.1,0.1
					c-11.4,0.1-23.7,0-33.5-0.1c0.2,0,0,0-0.1,0C189.7,307.9,188.4,307.9,186.8,307.9L186.8,307.9z"/>
			</g>
			<g id="line-3">
				<line class="st1" x1="226.9" y1="2" x2="183.5" y2="3.1"/>
				<path class="st0" d="M186.2,3.3c0.9,0-0.1,0-0.5,0H186.2z M184.8,3.3c0.2,0,0.5,0,0.7,0C185.4,3.4,185.1,3.3,184.8,3.3
					L184.8,3.3z M183.5,3.3c0.2,0,0.7,0,1.2,0C184.3,3.3,184,3.4,183.5,3.3L183.5,3.3z M191.2,3.1c0.4,0,1.5,0,0.5,0
					C191.6,3.1,191.3,3.1,191.2,3.1L191.2,3.1z M192.8,3.1c0.5-0.1,1.1,0,1.7-0.1c-0.5-0.1-1.4,0-2.2,0c0.4,0,0.6,0,1,0
					c-2,0-3.6,0-5.2,0c1-0.1,1.8,0,2.7-0.1c0.2,0-0.2,0,0,0c3.6-0.1,7.1-0.2,10.8-0.4c2,0,4.3,0,6.5-0.1c0.1,0,0.1,0,0.4-0.1
					c1.8,0,3.4-0.1,5.5-0.2c2.6-0.1,4.9-0.4,7.2-0.5c1.6-0.1,3.3-0.1,4.9,0.1c0.1,0,0,0,0,0h0.4c-1.1,0,0.4,0.1,0.4,0.2
					s-1.8,0.4-2.9,0.4c-0.5,0-0.6,0-1.1,0c-1,0-2,0.1-2.9,0.2c-1.6,0.1-3.4,0.2-5.2,0.2c-6.5,0.2-13.6,0.2-19.2,0.2c0.1,0,0,0,0,0
					C194.6,3.2,193.8,3.2,192.8,3.1L192.8,3.1z"/>
			</g>
			<path id="line-4" class="st0" d="M8,175.1c0-1.7,0,0.1,0,0.9V175.1z M7.9,177.8c0-0.2,0-1,0-1.4C7.9,176.8,7.9,177.3,7.9,177.8
				L7.9,177.8z M7.8,180.4c0-0.6,0-1.5,0-2.5C7.9,178.3,7.8,179.6,7.8,180.4L7.8,180.4z M8,165.4c0-0.7,0.1-2.8,0-1
				C8,164.8,8,165.1,8,165.4z M8.3,162.2c-0.1-1,0-2.1,0-3.3c-0.1,0.9-0.1,2.7-0.1,4.4c0,0.4,0-1.4,0-2c-0.1,3.8-0.2,6.9-0.4,9.9
				c0-2,0.1-3.6,0-5.2c0-0.4,0,0.5,0,0.1c0.1-7,0.2-13.6,0.4-20.9l0.2-9.1l0,0l-0.2-3.4c0-0.2-0.1-0.2-0.1-0.6
				c-0.4-3.6-0.7-6.6-1.2-10.7c-0.6-5-1.4-9.5-2-14c-0.5-3.2-0.7-6.3-0.9-9.5c0-0.2,0,0,0.1,0.1l-0.1-1c0.2,2.1,0.1-0.7,0.2-0.7
				s0.6,3.6,1,5.6c0.1,0.9,0.1,1.1,0.2,2.2c0.2,1.8,0.5,3.7,0.9,5.6c0.4,3.1,0.9,6.5,1.2,10.1c0.6,5.3,1.2,10.8,1.8,16.2v0.1
				c-0.2,7.4-0.5,14.6-0.7,20.8c0-0.2,0,0,0,0.1C8.4,158.9,8.3,160.5,8.3,162.2L8.3,162.2z"/>
		</g>
		<path id="symbol" class="st2" d="M237.6,117.8L251,85.8c0.1-0.4,0-0.7-0.4-0.9c-0.1,0-0.2-0.1-0.4,0c-6.5,1.4-38.3,5.5-91.2,5.5
			S74.3,86.2,67.8,85c-0.4-0.1-0.7,0.1-0.7,0.5c0,0.1,0,0.2,0,0.4l13.4,31.9c0.9,2.1,2.8,3.3,5,3.3h23.6l7.6-1l-5.5,2.3l-4.4,25.7
			H89c-1.7,0-3.3,1.1-3.9,2.7l-12,31.9c-0.1,0.5,0.1,1,0.6,1.2c0.1,0.1,0.4,0.1,0.6,0c3.2-1,37.2-5.4,43.6-5.9
			c-6,0.7-11.5,5.5-16.6,6.3l-8,43.2c-0.2,1.2,0.6,2.5,1.8,2.7c0.1,0,0.2,0,0.4,0h21.7c2.1,0,3.9-1.5,4.3-3.6l11.7-49.2
			c7.7-0.2,16.2-0.4,25.8-0.4s18,0.1,25.8,0.4l11.8,49.2c0.4,2.1,2.1,3.6,4.3,3.6h21.7c1.2,0,2.3-1,2.3-2.3c0-0.1,0-0.2,0-0.4
			l-8.1-43.2c-4.9-0.9-10.4-5.6-16.6-6.3c5.9,0.5,43.5,5,47,5.9c0.5,0.1,1-0.2,1.1-0.7c0-0.1,0-0.4,0-0.5l-12.6-32
			c-0.6-1.6-2.2-2.6-3.9-2.6h-20.6l-4.4-25.7l-5.6-2.3l7.6,1h23.6C234.8,121.1,236.8,119.8,237.6,117.8z M140.2,148.1l6.4-26.9h24.7
			l6.4,26.9H140.2z"/>
	</g>
</g>
</svg>
