<svg id="logo-on-black" xmlns="http://www.w3.org/2000/svg" viewBox="0 0 318 440"><defs><style>.cls-1,.cls-2{fill:#d81313;}.cls-2,.cls-4{fill-rule:evenodd;}.cls-3,.cls-4{fill:#fff;}</style></defs><title>dojo-esport-final</title><g id="logo"><g id="square-sigle"><g id="square"><path class="cls-1" d="M32.55,271.34a24.45,24.45,0,0,0,11,6.91c.65-.49,23.19-2.43,23.19-2.43l26.41.75,36-.31L151.23,278l24.69-1.52,74,.94,5.28,1.66c.43-.23,16.43-2.61,18.32-2.37a24.54,24.54,0,0,0,9-7.62c1.64-7.3.32-19.24.32-19.24l1.64-19.69-2.27-10.62v-6.26l-3-37,4.29-39.66-2-35.45,4.83-24.51s.46-23.71.7-35.58a24.33,24.33,0,0,0-2.82-9.87c-4.19-.93-7.94.62-11.92.36-11-.71-21.7-1.39-32.1-1.87l-43.27,3.42-65.3-2.61a1.08,1.08,0,0,1-.8.51v-.54l-9.06-.36L58,29,55.4,30.16,46,28.66l-7-.06-2.59,2.9L33.8,35.36,32.24,53.45l-.88,17.89s1.81,17.14,3.52,25.28c.51,2.41.06,3.67,0,6.26.9,11.66,3,37,3,37l-3,40.17-.28,15.73-3.56,17L31.88,237,31,245l1.78,16.14Z"/><g id="line"><line class="cls-1" x1="283.87" y1="152.23" x2="280.38" y2="177.18"/><path class="cls-2" d="M280.71,176.81c.08-.81.19-1.62.24-2.44-.18,1-.38,1.66-.55,2.8a20.61,20.61,0,0,1,.25-3.92c.06-.47.07-.93.12-1.38s.15-1,.22-1.45.13-1.26.21-1.86c.49-3.78,1-7.88,1.69-11.45a3.83,3.83,0,0,0,0,.66c.17-1.14.41-2.67.58-3.79,0,.65-.14,1.47-.19,1.87a.82.82,0,0,1,0-.24,2.18,2.18,0,0,0-.07.65c.09-.31.16-.93.24-1.37,0,.14-.08.68-.07.9.18-1,.46-2.4.62-3.54,0,.62,0,1.28-.1,2-.33,3.18-1,7.42-1.52,11.48-.38,2.71-.92,6.51-1.37,9.19C280.88,175.77,280.83,176.28,280.71,176.81Z"/></g><g id="line-2" data-name="line"><line class="cls-1" x1="230.05" y1="279.03" x2="168.27" y2="279.15"/><path class="cls-2" d="M172.06,279.39c1.24,0-.11,0-.66,0Zm-1.89,0c.17,0,.68,0,1,0A6.18,6.18,0,0,1,170.16,279.39Zm-1.89,0c.42,0,1.1,0,1.81,0C169.75,279.42,168.76,279.38,168.27,279.38Zm11-.1c.56,0,2,0,.74,0C179.68,279.28,179.43,279.27,179.22,279.27Zm2.31.1c.7-.08,1.55,0,2.47,0-.64-.07-2,0-3.21-.05-.29,0,1,0,1.4,0-2.81,0-5.1,0-7.33-.13,1.47-.06,2.62,0,3.79-.07.3,0-.4,0-.08,0,5.13-.05,10-.13,15.32-.1,2.71,0,6.09,0,9.23,0,.19,0,.19-.05.49-.07,2.63,0,4.85,0,7.91-.06,3.69,0,7-.23,10.38-.28a54.81,54.81,0,0,1,7,.18c.17,0,0,0-.08,0h.74c-1.52,0,.5.16.49.26s-2.62.23-4.2.28c-.63,0-.8,0-1.65,0-1.33,0-2.76.08-4.2.13-2.27.07-4.86.1-7.41.12-9.29.06-19.34,0-27.27-.15.16,0,0,0-.08,0C184,279.4,182.85,279.39,181.53,279.38Z"/></g><g id="line-3" data-name="line"><line class="cls-1" x1="214.33" y1="30.25" x2="178.92" y2="31.11"/><path class="cls-2" d="M181.1,31.31c.71,0-.07,0-.38,0Zm-1.09,0a5,5,0,0,1,.57,0C180.52,31.36,180.17,31.32,180,31.33Zm-1.09,0c.24,0,.63,0,1,0A6.53,6.53,0,0,1,178.92,31.34Zm6.28-.24c.32-.05,1.17,0,.43,0C185.46,31.11,185.32,31.1,185.2,31.11Zm1.32.07c.4-.09.89,0,1.42-.07-.37-.06-1.13,0-1.84,0a7.83,7.83,0,0,1,.8,0c-1.61,0-2.92,0-4.21,0,.84-.07,1.5,0,2.17-.11.17,0-.23,0,0,0,2.94-.11,5.76-.25,8.78-.29,1.56,0,3.49,0,5.29-.09.11,0,.11-.05.28-.08,1.51,0,2.78-.09,4.53-.16,2.11-.08,4-.31,5.94-.41a18.1,18.1,0,0,1,4,.09c.1,0,0,0,0,0H214c-.87,0,.29.15.29.25s-1.5.26-2.4.33c-.36,0-.46,0-.94,0-.76,0-1.58.12-2.41.18-1.3.09-2.79.16-4.25.21-5.32.17-11.08.23-15.63.18.09,0,0,0,0,0C188,31.18,187.28,31.17,186.53,31.18Z"/></g><path id="line-4" data-name="line" class="cls-2" d="M35.95,171.25c0-1.37,0,.13,0,.73Zm-.06,2.1c0-.19,0-.76,0-1.1A7.62,7.62,0,0,1,35.88,173.36Zm-.06,2.1c0-.47,0-1.22,0-2C35.9,173.81,35.83,174.91,35.82,175.46ZM36,163.3c0-.62.07-2.26,0-.82C36.05,162.79,36,163.07,36,163.3Zm.17-2.56c-.06-.78,0-1.72,0-2.74-.09.7-.08,2.19-.14,3.56,0,.33,0-1.14,0-1.55-.1,3.12-.18,5.65-.34,8.13,0-1.63.06-2.91,0-4.21,0-.33,0,.45,0,.09.1-5.7.16-11.15.34-17l.22-7.43v0L36,136.82c0-.21-.08-.21-.13-.54-.33-2.9-.63-5.35-1-8.72-.49-4.06-1.09-7.69-1.56-11.42a67.48,67.48,0,0,1-.69-7.74c0-.19,0,0,.06.09l-.09-.82c.19,1.68.09-.57.2-.57s.55,2.87.8,4.6c.1.7.12.88.23,1.81.17,1.47.43,3,.65,4.62.35,2.5.71,5.35,1,8.16.51,4.34,1,8.84,1.5,13.24v.07c-.18,6-.38,11.87-.59,16.93,0-.18,0,0,0,.09C36.29,158,36.24,159.27,36.2,160.74Z"/></g><path id="symbol" class="cls-3" d="M223,124.51l10.93-26a.55.55,0,0,0-.61-.76c-5.32,1.06-31.21,4.53-74.34,4.53s-69-3.48-74.34-4.53a.55.55,0,0,0-.61.76l10.93,26a4.46,4.46,0,0,0,4.11,2.73h19.24l6.23-.82L120,128.33l-3.56,20.86H102a3.4,3.4,0,0,0-3.18,2.2l-9.85,26a.77.77,0,0,0,.93,1c2.61-.75,30.34-4.36,35.49-4.75-4.92.57-9.44,4.46-13.46,5.15L105.39,214a1.88,1.88,0,0,0,1.85,2.2H125a3.51,3.51,0,0,0,3.46-2.92L138,173.23c6.26-.2,13.23-.32,21-.32s14.71.12,21,.31l9.56,40.07a3.51,3.51,0,0,0,3.46,2.92h17.71a1.88,1.88,0,0,0,1.85-2.2L206,178.77c-4-.69-8.53-4.58-13.46-5.15,4.76.36,35.39,4.05,38.34,4.81a.77.77,0,0,0,.9-1l-10.28-26.07a3.4,3.4,0,0,0-3.16-2.15H201.55L198,128.33l-4.56-1.91,6.23.82h19.24A4.46,4.46,0,0,0,223,124.51Zm-79.32,24.68,5.23-21.95h20.11l5.23,21.95Z"/></g><g id="dojo-esport"><g id="esport"><polygon class="cls-1" points="108.58 411.98 108.58 411.48 108.08 411.48 103.13 411.5 103.11 405.57 107.14 405.56 107.64 405.56 107.64 405.06 107.64 404.06 107.64 403.56 107.14 403.56 103.11 403.57 103.09 397.88 108.05 397.87 108.55 397.87 108.55 397.37 108.55 396.38 108.55 395.88 108.05 395.88 101.5 395.89 101 395.89 101 396.39 101.04 413 101.04 413.5 101.54 413.5 108.09 413.48 108.59 413.48 108.59 412.98 108.58 411.98"/><path class="cls-1" d="M128.72,405.17a13.58,13.58,0,0,0-1.5-1.2,16.93,16.93,0,0,1-1.41-1.08,5,5,0,0,1-1-1.17,2.76,2.76,0,0,1-.37-1.47,3.51,3.51,0,0,1,.47-1.92,1.62,1.62,0,0,1,1.49-.64h0a2.06,2.06,0,0,1,.92.18,1.57,1.57,0,0,1,.59.5,2.26,2.26,0,0,1,.35.8,4.9,4.9,0,0,1,.12,1.11v.93h2v-.86a7,7,0,0,0-.22-1.79,4.2,4.2,0,0,0-.72-1.49,3.4,3.4,0,0,0-1.28-1,4.34,4.34,0,0,0-1.81-.35h0a3.69,3.69,0,0,0-3.09,1.34,5.35,5.35,0,0,0-.93,3.29,4.65,4.65,0,0,0,.5,2.21,6.06,6.06,0,0,0,1.22,1.57,12.74,12.74,0,0,0,1.51,1.2,15.33,15.33,0,0,1,1.41,1.06,5.07,5.07,0,0,1,1,1.17,2.71,2.71,0,0,1,.37,1.44,3.45,3.45,0,0,1-.48,1.92,2.14,2.14,0,0,1-3.05,0,3.45,3.45,0,0,1-.49-1.92v-1.42h-2v1.35a7,7,0,0,0,.22,1.79,4.1,4.1,0,0,0,.74,1.5,3.42,3.42,0,0,0,1.3,1,4.91,4.91,0,0,0,3.66,0,3.44,3.44,0,0,0,1.3-1,4.11,4.11,0,0,0,.73-1.5,7,7,0,0,0,.21-1.79,4.53,4.53,0,0,0-.5-2.18A6.15,6.15,0,0,0,128.72,405.17Z"/><path class="cls-1" d="M151,397.08a3.66,3.66,0,0,0-3.13-1.3h-4v.5l0,16.6v.5H146v-.5l0-6.33h1.56a4.34,4.34,0,0,0,3.28-1.14,4.65,4.65,0,0,0,1.05-3.31v-1.8A5.3,5.3,0,0,0,151,397.08Zm-5,7.48,0-6.78h1.85a1.68,1.68,0,0,1,1.52.58,3.4,3.4,0,0,1,.46,1.88v1.95a2.65,2.65,0,0,1-.51,1.85,2.37,2.37,0,0,1-1.74.53Z"/><path class="cls-1" d="M173.38,398.47a4.15,4.15,0,0,0-.76-1.51,3.64,3.64,0,0,0-1.34-1,4.41,4.41,0,0,0-1.84-.36h0a4.34,4.34,0,0,0-1.85.37,3.54,3.54,0,0,0-1.3,1,4.25,4.25,0,0,0-.74,1.51,6.78,6.78,0,0,0-.23,1.81l0,8.49a6.78,6.78,0,0,0,.24,1.8,4.25,4.25,0,0,0,.74,1.5,3.57,3.57,0,0,0,1.31,1,4.36,4.36,0,0,0,1.83.36,4.47,4.47,0,0,0,1.87-.37,3.67,3.67,0,0,0,1.33-1,4.15,4.15,0,0,0,.75-1.51,6.74,6.74,0,0,0,.23-1.81l0-8.49A6.74,6.74,0,0,0,173.38,398.47Zm-3.92,13a1.68,1.68,0,0,1-1.53-.66,3.55,3.55,0,0,1-.5-2l0-8.63a3.56,3.56,0,0,1,.5-2,1.68,1.68,0,0,1,1.54-.67,1.75,1.75,0,0,1,1.57.67,3.44,3.44,0,0,1,.52,2l0,8.63a3.43,3.43,0,0,1-.51,2,1.74,1.74,0,0,1-1.56.67"/><path class="cls-1" d="M194.93,411.77a7.51,7.51,0,0,1-.07-1v-2.59a4.6,4.6,0,0,0-.64-2.5,2.86,2.86,0,0,0-.93-.9,3.74,3.74,0,0,0,1.55-3.43v-1.45a4.68,4.68,0,0,0-1-3.07,3.84,3.84,0,0,0-3.1-1.17h-4v.5l0,16.6v.5h2.09v-.5l0-6.92h1.23a5.33,5.33,0,0,1,1.17.12,2,2,0,0,1,.79.36,1.48,1.48,0,0,1,.47.65,3.33,3.33,0,0,1,.18,1.19v2.61a8.26,8.26,0,0,0,.08,1.23,3,3,0,0,0,.35,1l.14.25h2.35l-.5-.77A1.75,1.75,0,0,1,194.93,411.77Zm-4.18-14.09h0a1.82,1.82,0,0,1,1.52.55,2.94,2.94,0,0,1,.47,1.79v1.56a3.33,3.33,0,0,1-.18,1.19,1.45,1.45,0,0,1-.45.64,1.78,1.78,0,0,1-.75.33,5.93,5.93,0,0,1-1.2.11h-1.26v-6.19Z"/><polygon class="cls-1" points="217 397.61 217 397.11 217 396.12 217 395.62 216.5 395.62 208.65 395.63 208.15 395.64 208.15 396.14 208.15 397.13 208.15 397.63 208.65 397.63 211.52 397.62 211.56 412.73 211.56 413.23 212.06 413.23 213.15 413.23 213.65 413.23 213.65 412.73 213.61 397.62 216.5 397.61 217 397.61"/></g><g id="dojo"><g id="D"><path class="cls-3" d="M104.38,339.76v20.59q0,5.68-2.22,8.33t-7.53,2.65h-5.8V339.45c-1.37,0-2.2,0-3.62.08-.09,0-.75,0-1.4,0l.36,0-1.41.08,1.4-.09-1.17.07,1-.08,4.79-.32V307.16h5.8q5.55,0,7.65,2.84t2.1,8v20.42l7.37-.3,5.22-.2V318q0-10.74-5.68-16.73t-16.42-6H76.23V383.2H93.76q11.23,0,17.22-5.86t6-18.21v-19C112.69,340,108.47,339.86,104.38,339.76Z"/></g><g id="O"><path class="cls-3" d="M133.26,337.34V316q0-4.57,2.53-6.73a9.38,9.38,0,0,1,12,0q2.53,2.16,2.53,6.73v20.74l8.29-.32,4.3-.19V316a22.46,22.46,0,0,0-1.85-9.38,19.59,19.59,0,0,0-4.88-6.73,21.07,21.07,0,0,0-6.79-4,21.9,21.9,0,0,0-15.18,0,21,21,0,0,0-6.79,4,19.57,19.57,0,0,0-4.88,6.73,22.46,22.46,0,0,0-1.85,9.38V337.8Z"/><path class="cls-3" d="M157.88,341.12l-7.58-.18v21.51q0,4.57-2.53,6.73a9.38,9.38,0,0,1-12,0q-2.53-2.16-2.53-6.73V340.54l-3.71-.09-8.88-.24v22.25a22.34,22.34,0,0,0,1.85,9.44,19.69,19.69,0,0,0,4.88,6.67,21,21,0,0,0,6.79,4,21.9,21.9,0,0,0,15.18,0,21,21,0,0,0,6.79-4A19.71,19.71,0,0,0,161,371.9a22.34,22.34,0,0,0,1.85-9.44v-21.2Z"/></g><g id="J"><path class="cls-3" d="M195.85,334.85V295.3H183.26V335.4C187.44,335.21,191.65,335,195.85,334.85Z"/><path class="cls-3" d="M183.74,341.77h-.48v19a13.11,13.11,0,0,1-.93,5.37,9.62,9.62,0,0,1-2.22,3.21,7.07,7.07,0,0,1-2.78,1.6,16.89,16.89,0,0,1-3.59.43c-3.34,0-6-2.13-7.58-4a23.31,23.31,0,0,1-1.81,6.1,24.47,24.47,0,0,1-3.39,5.41c1,.81,2.11,1.62,3.35,2.44a17.85,17.85,0,0,0,10.06,2.65,22.29,22.29,0,0,0,9-1.73,20.18,20.18,0,0,0,6.73-4.69,20.66,20.66,0,0,0,4.26-6.85,22.85,22.85,0,0,0,1.48-8.21V342Q189.84,341.9,183.74,341.77Z"/></g><g id="O-2" data-name="O"><path class="cls-3" d="M239.87,341.67c-3.17.36-5.65-.22-9-.12l-1.72,0v1a31.07,31.07,0,0,1,4.42.59l-4.42-.21v19.45q0,4.57-2.53,6.73a9.38,9.38,0,0,1-12,0q-2.53-2.16-2.53-6.73V341.28c-.79-.07-1.58-.12-2.36-.12s-1.35.36-2,.35-1.86-.25-2.34-.28h-.12c-.39.21.76.32-.23.36,1.36.6,2.68.17,3.85.43q-4.67,0-9.42,0v20.45a22.34,22.34,0,0,0,1.85,9.44,19.68,19.68,0,0,0,4.88,6.67,21,21,0,0,0,6.79,4,21.9,21.9,0,0,0,15.18,0,21,21,0,0,0,6.79-4,19.71,19.71,0,0,0,4.88-6.67,22.34,22.34,0,0,0,1.85-9.44V341.11A8,8,0,0,1,239.87,341.67Zm-30.55.47c.17-.24,1.24-.14,1.87-.09C211.24,342.32,209.85,342.09,209.32,342.14Z"/><path class="cls-3" d="M209.08,334.44l3.06-.06V316q0-4.57,2.53-6.73a9.38,9.38,0,0,1,12,0q2.53,2.16,2.53,6.73v18c4.19,0,8.35.08,12.59.44V316a22.46,22.46,0,0,0-1.85-9.38,19.59,19.59,0,0,0-4.88-6.73,21.07,21.07,0,0,0-6.79-4,21.9,21.9,0,0,0-15.18,0,21,21,0,0,0-6.79,4,19.56,19.56,0,0,0-4.88,6.73,22.46,22.46,0,0,0-1.85,9.38v18.66C202.76,334.59,206,334.49,209.08,334.44Z"/></g></g><g id="line-5" data-name="line"><path class="cls-4" d="M86.53,404c-.27,0-.32-.52-.5-.71s-.92.2-1.28,0-1.21,0-1.51-.09a12.59,12.59,0,0,0-4.11-.4,9.79,9.79,0,0,1-1.89-.14c-2.33.08-4.63.22-6.85.19-1.67,0-3.81,0-5.88-.09-.44,0-.89.05-1.33,0-2.42,0-5-.07-7.11,0H54.93c-.4,0-.8.05-1.2,0a24.07,24.07,0,0,0-4.32,0,2.36,2.36,0,0,0-1-.14c-2.47,0-4.52-.07-6.9.13-.09,0-.38-.25-.5-.18,0-1.66.15-1.84.11-3.28-.43-1,0-1.82.06-2.63,0-.65,0-1.32.1-2a36,36,0,0,0,.36-3.8c0-2.32.1-4.69.21-7.05.18-3.9,0-7.85.21-11.15a17.09,17.09,0,0,1,.05-4c-.15-2.84-.12-5.68-.21-8.65-.1-3.35-.17-6.51-.31-9.55,0-.47.09-.94.05-1.4-.11-1.23-.09-.89-.13-2.08a7.14,7.14,0,0,1-.08-1.65,36,36,0,0,0,.2-3.82,1.13,1.13,0,0,1,.06-.66,2.62,2.62,0,0,0,0-1c0-.26,0-.38.18-.36a5.91,5.91,0,0,0,1.15,0c.29,0,.58,0,.84,0,2.58-.1,5-.21,7.55-.4.59,0,1.45,0,2.07-.07,1.43-.09,5.7.27,6.84,0,1.6.2,1.54,0,1.62-.66.06-.47.19-.84,0-1.15a22.83,22.83,0,0,0-2.32-.06c-.95-.11-1.53,0-2.52-.08-1.35-.12-2.72-.09-4.13-.15s-2.8,0-4.22,0c-1.84,0-4.49,0-6.39.15-1.13.08-2.12.43-2.79.4a5.27,5.27,0,0,1,0,.74c0,.17,0,.18,0,.33a35.48,35.48,0,0,0-.26,4,17.81,17.81,0,0,1-.26,2.6,20.11,20.11,0,0,0-.1,3.45c-.12,8.69-.05,15.79-.05,25.2,0,4.24-.08,8.45-.21,12.45-.07.05-.31.2-.21.25s.09,0,.1-.1a78.77,78.77,0,0,1-.1,8.35c0,1.09.25,2.26.26,3.55,0,.78.1,1.79.05,2.6a3.91,3.91,0,0,0-.1,1.1,9.72,9.72,0,0,1,.31,2l0,0a.75.75,0,0,0-.07.32,1,1,0,0,0,.17.57c.1.09.34,0,.53,0s.47.12.37,0h-.17A1.7,1.7,0,0,1,41,405c3.46.32,6.85.4,10.37.57,2,.1,3.85.16,5.72.19,3.36.05,6.75-.09,10.11,0a20.25,20.25,0,0,0,3.22,0,13.22,13.22,0,0,0,3.39.09c3.16,0,5.75-.09,9.31,0a20.08,20.08,0,0,0,2.88-.22C86.79,405.43,86.45,404.55,86.53,404Z"/><path class="cls-4" d="M231.95,404.3c.27,0,.32-.52.5-.71a3.22,3.22,0,0,1,1-.52,8.5,8.5,0,0,1,1.58-.2,28.23,28.23,0,0,1,3.82-.05,9.79,9.79,0,0,0,1.89-.14c2.33.08,4.63.22,6.85.19,1.67,0,3.81,0,5.88-.09.44,0,.89.05,1.33,0,2.42,0,5-.07,7.11,0h1.13c.4,0,.8.05,1.2,0a24.07,24.07,0,0,1,4.32,0,2.36,2.36,0,0,1,1-.14c2.47,0,4.66.1,7,.3.09,0-.15-1.27,0-1.19,0-1.66.25-1.42.29-2.86a11.89,11.89,0,0,0-.09-2.2,13.4,13.4,0,0,1-.1-2,36,36,0,0,1-.36-3.8c0-2.32-.1-4.69-.21-7.05-.18-3.9,0-7.85-.21-11.15a17.09,17.09,0,0,0-.05-4c.15-2.84.12-5.68.21-8.65.1-3.35.17-6.51.31-9.55,0-.47-.09-.94-.05-1.4.11-1.23.23-1.25.27-2.44a12.67,12.67,0,0,1,0-1.87,28.94,28.94,0,0,1,.11-3.42c.07-.26-.24-.57-.14-.68-.06-.48-.63-.44-.56-1-.12.06-.08-.21-.21-.19-.64.09-.21,0-.88,0-.29,0-.58,0-.84,0-2.58-.1-5-.21-7.55-.4-.59,0-1.2-.26-1.82-.3a18.27,18.27,0,0,1-3.55-.25,36.88,36.88,0,0,1-5.49.29c-.47,0-.4-.95-.42-1.68s.17-.38,1.18-.49,3.32.12,4.3,0c1.35-.12,2.79.26,4.2.19s2.8,0,4.22,0c1.84,0,4.49,0,6.39.15,1.13.08,2.31,0,2.8.85a2,2,0,0,1-.11.49c.08,0,.15,0,.14.13a35.48,35.48,0,0,1,.26,4,17.81,17.81,0,0,0,.26,2.6,20.11,20.11,0,0,1,.1,3.45c.12,8.69.05,15.79.05,25.2,0,4.24.08,8.45.21,12.45.07.05.31.2.21.25s-.09,0-.1-.1a78.77,78.77,0,0,0,.1,8.35c0,1.09-.25,2.26-.26,3.55,0,.78-.1,1.79-.05,2.6a3.91,3.91,0,0,1,.1,1.1,9.72,9.72,0,0,0-.31,2l0,0a.75.75,0,0,1,.07.32,1,1,0,0,1-.17.57c-.1.09-.34,0-.53,0s-.47.12-.37,0h.17a1.7,1.7,0,0,0-1.1.09c-3.46.32-6.85.4-10.37.57-2,.1-3.85.16-5.72.19-3.36.05-6.75-.09-10.11,0a20.25,20.25,0,0,1-3.22,0,13.22,13.22,0,0,1-3.39.09c-3.16,0-6.6,0-9.69.12a9.79,9.79,0,0,1-2,0C231.69,405.76,232,404.88,231.95,404.3Z"/><line class="cls-3" x1="37.78" y1="379.93" x2="38.2" y2="347.54"/><path class="cls-4" d="M38,349.53c0,.65,0-.06,0-.35C38,349.29,38,349.41,38,349.53Zm0-1c0,.09,0,.36,0,.52A2.39,2.39,0,0,1,38,348.53Zm0-1c0,.22,0,.58,0,1A7.67,7.67,0,0,1,38,347.54Zm0,5.74c0,.29,0,1.07,0,.39C38,353.53,38,353.4,38,353.29Zm-.09,1.21c0,.37,0,.81,0,1.3.06-.33,0-1,.06-1.68,0-.15,0,.54,0,.73,0-1.47.07-2.67.15-3.84,0,.77,0,1.37,0,2,0,.15,0-.21,0,0,0,2.69,0,5.27-.05,8,0,1.42-.08,3.19-.09,4.84,0,.1,0,.1,0,.26,0,1.38,0,2.54,0,4.15,0,1.93.1,3.67.12,5.44a21.19,21.19,0,0,1-.18,3.67c0,.09,0,0,0,0v.39c0-.8-.12.26-.19.26a8.32,8.32,0,0,1-.17-2.2c0-.33,0-.42,0-.86,0-.7,0-1.45-.06-2.2,0-1.19,0-2.55,0-3.89,0-4.87.16-10.14.33-14.29,0,.09,0,0,0,0C37.89,355.8,37.91,355.19,37.93,354.49Z"/><line class="cls-3" x1="74.34" y1="406.92" x2="41.95" y2="406.5"/><path class="cls-4" d="M43.93,406.71c.65,0-.06,0-.35,0Zm-1,0c.09,0,.36,0,.52,0A2.39,2.39,0,0,1,42.94,406.69Zm-1,0c.22,0,.58,0,1,0A7.66,7.66,0,0,1,41.95,406.67Zm5.74,0c.29,0,1.07,0,.39,0Zm1.21.09c.37,0,.81,0,1.3,0-.33-.06-1,0-1.68-.06-.15,0,.54,0,.73,0-1.47,0-2.67-.07-3.84-.15.77,0,1.37,0,2,0,.15,0-.21,0,0,0,2.69,0,5.27,0,8,.05,1.42,0,3.19.08,4.84.09.1,0,.1,0,.26,0,1.38,0,2.54,0,4.15,0,1.93,0,3.67-.1,5.44-.12a21.19,21.19,0,0,1,3.67.18c.09,0,0,0,0,0h.39c-.8,0,.26.12.26.19a8.32,8.32,0,0,1-2.2.17h-.86c-.7,0-1.45,0-2.2.06-1.19,0-2.55,0-3.89,0-4.87,0-10.14-.16-14.29-.33.09,0,0,0,0,0C50.2,406.81,49.59,406.79,48.9,406.77Z"/><line class="cls-3" x1="280.61" y1="371.54" x2="280.2" y2="403.93"/><path class="cls-4" d="M280.4,401.95c0-.65,0,.06,0,.35C280.4,402.18,280.4,402.06,280.4,401.95Zm0,1c0-.09,0-.36,0-.52A2.39,2.39,0,0,1,280.38,402.94Zm0,1c0-.22,0-.58,0-1A7.67,7.67,0,0,1,280.36,403.93Zm0-5.74c0-.29,0-1.07,0-.39C280.39,397.95,280.37,398.08,280.38,398.19Zm.09-1.21c0-.37,0-.81,0-1.3-.06.33,0,1-.06,1.68,0,.15,0-.54,0-.73,0,1.47-.07,2.67-.15,3.84,0-.77,0-1.37,0-2,0-.15,0,.21,0,0,0-2.69,0-5.27.05-8,0-1.42.08-3.19.09-4.84,0-.1,0-.1,0-.26,0-1.38,0-2.54,0-4.15,0-1.93-.1-3.67-.12-5.44a21.19,21.19,0,0,1,.18-3.67c0-.09,0,0,0,0v-.39c0,.8.12-.26.19-.26a8.32,8.32,0,0,1,.17,2.2c0,.33,0,.42,0,.86,0,.7,0,1.45.06,2.2,0,1.19,0,2.55,0,3.89,0,4.87-.16,10.14-.33,14.29,0-.09,0,0,0,0C280.51,395.68,280.48,396.29,280.47,397Z"/><line class="cls-3" x1="237.11" y1="406.87" x2="256.3" y2="407.29"/><path class="cls-4" d="M252.44,406.91h-.38A2.57,2.57,0,0,0,252.44,406.91Zm.36,0a2,2,0,0,1-.23,0A1,1,0,0,1,252.79,406.92Zm.48,0c-.2,0-.28,0,0,0Zm.06,0h.17S253.32,406.95,253.34,406.93Zm.48,0a1.49,1.49,0,0,1-.19,0S253.78,406.95,253.82,407Zm2.17.12a3.12,3.12,0,0,1,.31,0C256.18,407.09,256.14,407.07,256,407.07Zm-.33,0h0C256,407.07,255.76,407.09,255.66,407.07Zm.46,0c-.2,0-.28,0,0,0Zm-1.65,0h0s-.11,0-.1,0Zm-3.55-.22c.68,0,1.46.05,2.22.08l1.71.07H255l.15,0s0,0,0,0,0,0,0,0h.33c-.05,0,.05,0,.1,0s-.15,0,0,0a1,1,0,0,1-.27,0s0,0,0,0l-1,0c.37,0,.66,0,1,0a2.49,2.49,0,0,0-.25,0s0,0,0,0h-.33s.08,0,.08,0a2.17,2.17,0,0,1-.31,0c.07,0,.16,0,.19,0h0a3.54,3.54,0,0,0-.36,0c-.05,0,0,0,0,0-.35,0-.57,0-.82,0-.07,0,0,0,0,0s-.19,0-.19,0a.44.44,0,0,1-.23,0c-.17,0-.57,0-.77,0-.05,0,0,0,0,0-.16,0-.39,0-.65,0,0,0,0,0,0,0h-.15s.07,0,.13,0-.1,0-.17,0,0,0,0,0c-.21,0-.42,0-.67,0v0h0c-.14,0-.48,0-.71,0a2.33,2.33,0,0,0-.5,0h-.21c-.09,0-.51,0-.69,0-.58,0-1.76,0-2.61,0-.15,0-.28,0-.42,0h-.19a2.56,2.56,0,0,0-.33,0h0s-.1,0-.08,0-.23,0-.31,0-.6,0-.88,0h.06s-.1,0-.1,0,0,0,0,0h0s0,0,0,0l0,0c-.05,0,0,0,0,0s-.05,0-.13,0,0,0,0,0a12,12,0,0,0-1.36.06c-.16,0-.21,0-.4,0s-.42.05-.63.06h-.08c-.37,0-.79.09-1.28.11s-.91.06-1.38,0a8.08,8.08,0,0,1-1-.11c0-.05-.63-.17-.18-.23.2,0,.76,0,1.07,0l1-.07.67,0,.54,0c1-.07,2.17-.11,3.33-.11.82,0,1.56,0,2.38,0,0,0,0,0,0,0h.38s-.18,0-.21,0c.25,0,.66,0,1,0h0c.73,0,1.85.06,2.74.07a6.93,6.93,0,0,0,.71,0c.58,0,1.57,0,2.32.08l.84,0c-.61,0-1.44,0-2.13-.06,0,0,.1,0,.15,0s-.1,0-.08,0l1.17,0s-.07,0-.1,0C252.25,406.91,251.49,406.92,250.91,406.89Zm.42,0c.09,0,.17,0,.25,0s-.07,0-.06,0,.07,0,.1,0,.07,0,.06,0c-.19,0-.7,0-.79,0A3.09,3.09,0,0,1,251.33,406.88Zm2.4.16h0Zm-.15,0c-.11,0-.2,0,0,0,0,0,.16,0,.08,0h-.08Zm-.29-.11h-.08C252.89,406.95,253.23,406.94,253.3,407Zm.44,0a1.58,1.58,0,0,1-.36,0Z"/><line class="cls-3" x1="255.55" y1="339.47" x2="264.02" y2="339.58"/><path class="cls-4" d="M262.32,339.48h0Zm.16,0h0Zm.21,0Zm0,0h0Zm.21,0h0Zm1,0h0Zm-.15,0h0C263.88,339.52,263.78,339.53,263.74,339.52Zm.2,0Zm-.73,0h0Zm-1.56-.06,1,0,.76,0h.36s-.07,0,0,0h-.55s0,0,0,0h-.9s0,0,0,0h-3.78s0,0,0,0h0s0,0,0,0h-.06s0,0,0,0l-.6,0h-.18l-.28,0h0l-.57,0c-.21,0-.4,0-.61,0l-.44,0s-.28,0-.08-.06h.47l.44,0h.54c.46,0,1,0,1.47,0h1.52l1.21,0h.31l1,0h-.07Zm.18,0h0Zm1.06,0h0Zm-.07,0Zm-.13,0h0Zm.19,0h0Z"/><line class="cls-3" x1="58.92" y1="336.3" x2="43.71" y2="336.16"/><path class="cls-4" d="M47.39,336.33s-.19,0-.09,0Zm-1.92,0-1.18,0h.51l-1,0h.09s-.15,0-.18,0H52c1.25,0,2.48,0,3.62,0l1,0h1.25c.19,0,.35,0,.56,0h-.09l.27,0h-.07c.06,0,.15,0,.05,0l.29,0-.09,0c-.69.06-1.54,0-2.3.07l-1.45,0-1.9,0h-2l-1.74,0H47.71c.14,0,0,0-.14,0h0c-.45,0-1.05,0-1.45,0H46s0,0,0,0h0l-2,0h.25Zm2.34-.08h0Z"/></g></g></g></svg>