<?xml version="1.0" encoding="utf-8"?>
<!-- Generator: Adobe Illustrator 21.1.0, SVG Export Plug-In . SVG Version: 6.00 Build 0)  -->
<svg version="1.1" id="Layer_2" xmlns="http://www.w3.org/2000/svg" xmlns:xlink="http://www.w3.org/1999/xlink" x="0px" y="0px"
	 viewBox="0 0 300 93" style="enable-background:new 0 0 300 93;" xml:space="preserve">
<style type="text/css">
	.st0{fill:#050F21;}
</style>
<g>
	<g>
		<path class="st0" d="M21.5,30.1L4.1,39.5c0,0,17.4,3.6,17.4,15.9C21.4,55.5,44,36.8,21.5,30.1"/>
		<path class="st0" d="M21.5,55.2c9.2,0,17.9-5.5,16.5-10.3l4,5.2c0,0-1.8,11.4-20.5,14.9C2.8,61.5,1,50.2,1,50.2l4-5.3
			C3.5,49.7,12.2,55.2,21.5,55.2z"/>
	</g>
	<g>
		<path class="st0" d="M115.3,28.6h11.8v-0.1c6.2,0.2,11.6,5.4,11.6,11.9c0,6.6-5.4,11.8-11.6,12v-0.1H121v11.2h0.2h-6.4v0.2V28.6
			H115.3z M121,46.1h6c3.1,0,5.5-2.6,5.5-5.6s-2.5-5.6-5.5-5.6h-6V46.1z M168.2,28.6h5.8l0.2-0.1v0.1h0.2v0.2l11.5,34.7h-0.2v0.2
			l0.1,0.2h-0.1v0.5h0.1l-0.2,0.1v-0.1H180l-0.2,0.1v-0.1h-0.3v-0.7l-2.8-8.5h-11.2l-2.5,8.6v0.7h-0.5v0.1l-0.2-0.1h-5.5v0.1
			l-0.2-0.1h-0.7V64h-0.1l0.1-0.3v-0.2h0.4l11.9-34.7V28.6h-0.3v-0.1L168.2,28.6z M167.7,49.2h6.9l-3.5-10.4L167.7,49.2z
			 M204.7,28.6h11.8v-0.1c6.2,0.2,11.7,5.4,11.7,11.9c0,4.6-2.6,8.5-6.3,10.6l0.4,0.7l0.2,0.3l5.8,11.5h0.6h-7.3v0.3l-5.4-11.6h-5.9
			v11.3h0.2h-6.4v0.2V28.6H204.7z M210.3,46.1h6.1c3.1,0,5.5-2.6,5.5-5.6s-2.5-5.6-5.5-5.6h-6.1V46.1z M249.2,28.6h6.5v35h-7.3v0.1
			V28.6H249.2z M278.1,58.3v-0.8h9c3.1,0,5.4-2.4,5.4-5.4s-2.2-5.2-5.2-5.3v5.8h-0.2h0.2v0.1c-7.2-0.2-11.6-5.4-11.6-11.9
			c0-6.7,4.4-11.9,11.6-12.1h6.2V35h-6.4c-3.1,0-5.2,2.6-5.2,5.5c0,3,2.4,5.4,5.4,5.5v-6.1h-0.2h0.2V40c6.2,0.2,11.6,5.4,11.6,11.9
			s-5.4,11.8-11.6,11.9h-9.2"/>
	</g>
	<rect x="74.3" y="2.9" class="st0" width="6.7" height="87.2"/>
</g>
</svg>
