<?xml version="1.0" encoding="utf-8"?>
<!-- Generator: Adobe Illustrator 21.1.0, SVG Export Plug-In . SVG Version: 6.00 Build 0)  -->
<svg version="1.1" id="Layer_1" xmlns="http://www.w3.org/2000/svg" xmlns:xlink="http://www.w3.org/1999/xlink" x="0px" y="0px"
	 viewBox="0 0 484.6 150.2" style="enable-background:new 0 0 484.6 150.2;" xml:space="preserve">
<style type="text/css">
	.st0{fill:#050F21;}
</style>
<title>smartcast-logo-ninja</title>
<path class="st0" d="M33.7,128c0.8-0.3,3.4,0,5-0.1C37.8,128.2,35.2,128,33.7,128z"/>
<path class="st0" d="M42,50.1c-2.1-1.6-4.4-2.8-6.9-3.7l-9.8-3.7c-1.4-0.5-2.7-1.1-4-1.9c-0.9-0.6-1.7-1.3-2.2-2.3
	c-0.5-0.9-0.9-2-1-3.1c-0.2-1.5-0.2-2.9-0.3-4.4c0-1.4,0.1-2.9,0.3-4.3c0.2-1.3,0.6-2.5,1.2-3.6c0.6-1.1,1.5-2,2.6-2.6
	c1.3-0.7,2.8-1.1,4.3-1.1c3.2-0.1,5.6,1,7,3c1.4,2.2,2.2,4.8,2.1,7.5v2.9l12.7-0.2L48,26.4c0-2.5-0.6-5-1.6-7.2
	c-1-2.4-2.5-4.5-4.4-6.3c-2-1.9-4.3-3.4-6.8-4.5c-2.7-1.1-5.7-1.7-8.7-1.6c-3.3,0-6.5,0.7-9.5,2.1c-2.6,1.2-4.9,3-6.7,5.3
	c-1.8,2.3-3.1,5-3.9,7.8c-0.9,3.1-1.3,6.3-1.2,9.5c0.1,5.6,1.1,10.2,3,13.8c1.9,3.7,5.6,6.6,11.2,8.7l7,2.7l20.3-0.3
	c-0.2-0.4-0.3-0.8-0.5-1.2C45.1,53.2,43.7,51.5,42,50.1z"/>
<polygon class="st0" points="102.1,6.2 86.7,53.4 86.4,53.4 69.3,6.8 57.1,7 58,56.1 70.7,55.9 70.4,41.5 70.7,41.5 75.7,55.8 
	97.5,55.4 102,40.9 102.3,40.9 102.5,55.3 115.2,55.1 114.4,6 "/>
<polygon class="st0" points="140.4,5.5 130.3,54.8 141.8,54.7 145.9,30.9 146.2,30.9 151.2,54.5 162.8,54.3 151,5.3 "/>
<path class="st0" d="M218,43.4c1.6-4.2,2.4-8.8,2.2-13.3c-0.3-17.3-7.9-25.9-22.9-25.6L177,4.9l0.8,49.1l32.2-0.5l-0.4-1
	C213.4,50.5,216.3,47.3,218,43.4z M207.3,36c-0.2,1.5-0.6,3-1.4,4.3c-0.7,1.2-1.7,2.1-3,2.7c-1.7,0.7-3.5,1.1-5.3,1l-7.2,0.1
	l-0.5-27.6l6.6-0.1c1.9-0.1,3.8,0.2,5.6,0.8c1.4,0.5,2.5,1.4,3.3,2.6c0.9,1.3,1.4,2.8,1.6,4.3c0.3,2,0.5,3.9,0.5,5.9
	C207.6,32,207.5,34,207.3,36z"/>
<polygon class="st0" points="263.7,15.3 263.5,3.4 221.4,4.1 221.6,16 236.3,15.8 236.9,53 249.6,52.8 249,15.6 "/>
<path class="st0" d="M282.8,17.9c1-2,3.1-3,6.2-3c2.2-0.1,4.4,0.9,5.8,2.6c1.4,1.8,2.2,4.1,2.2,6.4l0.1,4.2l12.7-0.2l-0.1-5
	c0-2.9-0.6-5.8-1.7-8.5c-1-2.5-2.5-4.7-4.4-6.6c-1.9-1.8-4.1-3.3-6.5-4.2c-2.6-1-5.3-1.5-8.1-1.4c-2.9,0-5.7,0.6-8.4,1.7
	c-2.4,1-4.6,2.5-6.5,4.4c-1.8,1.9-3.2,4.1-4.1,6.5c-1,2.6-1.4,5.3-1.4,8.1l0.5,29.5l12.7-0.2l-0.5-26.9
	C281.2,22.8,281.7,20.2,282.8,17.9z"/>
<polygon class="st0" points="333.8,2.1 323.6,51.5 335.1,51.3 339.3,27.6 339.5,27.6 344.5,51.1 356.2,50.9 344.3,2 "/>
<path class="st0" d="M405.7,43.8c-2.1-1.6-4.4-2.8-6.9-3.7l-9.8-3.7c-1.4-0.5-2.7-1.1-4-1.9c-0.9-0.6-1.7-1.3-2.2-2.3
	c-0.5-0.9-0.9-2-1-3.1c-0.2-1.5-0.2-2.9-0.3-4.4c0-1.4,0.1-2.9,0.3-4.3c0.2-1.3,0.6-2.5,1.2-3.6c0.6-1.1,1.5-2,2.6-2.6
	c1.3-0.8,2.8-1.1,4.4-1.1c3.2-0.1,5.6,1,7,3.1c1.4,2.2,2.2,4.8,2.2,7.5v2.9l12.7-0.2l-0.1-6.2c0-2.5-0.6-5-1.6-7.2
	c-1.1-2.4-2.6-4.5-4.4-6.3c-2-1.9-4.3-3.4-6.8-4.5c-2.7-1.1-5.7-1.7-8.7-1.6c-3.3,0-6.6,0.7-9.5,2.1c-2.6,1.2-4.9,3-6.7,5.3
	c-1.8,2.3-3.1,5-3.9,7.8c-0.9,3.1-1.3,6.3-1.2,9.5c0.1,5.6,1.1,10.2,3,13.8c1.9,3.7,5.6,6.6,11.2,8.7l7,2.7l20.3-0.3
	c-0.2-0.4-0.3-0.8-0.5-1.2C408.8,46.9,407.4,45.1,405.7,43.8z"/>
<polygon class="st0" points="456.8,11.9 456.6,0 414.5,0.7 414.7,12.7 429.4,12.4 430,49.6 442.8,49.4 442.1,12.2 "/>
<path class="st0" d="M23.5,59.2c1.3,0.5,2.6,1.2,3.8,1.9c0.9,0.5,1.7,1.3,2.2,2.2c0.6,1.1,1,2.3,1.1,3.6c0.2,1.9,0.3,3.8,0.2,5.7
	c0,2-0.1,3.8-0.2,5.5c-0.1,1.5-0.5,2.9-1.2,4.2c-0.6,1.1-1.6,2-2.7,2.6c-1.6,0.7-3.3,1-5,0.9c-3.2,0-5.5-0.9-6.9-2.8
	c-1.4-1.8-2.1-4-2.1-6.3v-4H0v4.7c0,5.6,2.2,11,6.2,15c2,1.9,4.3,3.4,6.8,4.4c2.7,1.1,5.6,1.6,8.6,1.6c3.5,0.1,7.1-0.6,10.3-2
	c2.7-1.2,5-3.1,6.8-5.4c1.8-2.5,3-5.2,3.7-8.2c0.8-3.4,1.2-6.9,1.1-10.4c0-2.9-0.1-5.8-0.5-8.7c-0.2-1.9-0.7-3.8-1.4-5.5H21.4
	L23.5,59.2z"/>
<rect x="53" y="58.3" class="st0" width="12.7" height="39.5"/>
<rect x="97.6" y="58.3" class="st0" width="12.7" height="39.5"/>
<polygon class="st0" points="78.4,82 84.8,82 92.6,58.3 70.7,58.3 "/>
<polygon class="st0" points="147.9,66.8 135.2,66.8 136.8,58.3 125.3,58.3 116.5,97.8 129.2,97.8 132.9,78.7 150.2,78.7 153.9,97.8 
	166.6,97.8 157.8,58.3 146.2,58.3 "/>
<polygon class="st0" points="172.9,97.8 185.6,97.8 185.6,59.9 193.1,59.9 205,97.8 218.4,97.8 205.1,58.3 172.9,58.3 "/>
<rect x="232" y="58.3" class="st0" width="12.7" height="39.5"/>
<path class="st0" d="M264.2,77.6c-0.1,3.5,0.5,6.9,1.9,10.1c1.1,2.5,2.8,4.7,4.9,6.4c2,1.6,4.3,2.8,6.7,3.4c2.4,0.7,4.9,1,7.3,1
	c2.7,0,5.4-0.6,7.9-1.7c2.4-1.1,4.6-2.6,6.4-4.5c1.8-1.9,3.3-4.1,4.3-6.5c1-2.5,1.6-5.1,1.6-7.8v-5.5h-12.7v4.4c0,1.5-0.2,3-0.8,4.4
	c-0.4,1.1-1.1,2-1.9,2.8c-0.8,0.6-1.7,1.1-2.6,1.4c-0.9,0.3-1.8,0.4-2.7,0.4c-2.9,0-4.9-0.9-6-2.6c-1.2-1.9-1.8-4.2-1.7-6.5V58.3
	h-12.7V77.6z"/>
<polygon class="st0" points="341.2,66.8 328.5,66.8 330.2,58.3 318.7,58.3 309.9,97.8 322.6,97.8 326.3,78.7 343.6,78.7 347.4,97.8 
	360,97.8 351.2,58.3 339.6,58.3 "/>
<path class="st0" d="M387.3,59.2c1.3,0.5,2.6,1.2,3.8,1.9c0.9,0.5,1.7,1.3,2.2,2.2c0.6,1.1,1,2.3,1.1,3.6c0.2,1.9,0.3,3.8,0.2,5.7
	c0,2-0.1,3.8-0.2,5.5c-0.1,1.5-0.5,2.9-1.2,4.2c-0.6,1.1-1.6,2-2.7,2.6c-1.6,0.7-3.3,1-5,0.9c-3.2,0-5.5-0.9-6.9-2.8
	c-1.4-1.8-2.1-4-2-6.3v-4h-12.7v4.7c0,5.6,2.2,11,6.2,15c2,1.9,4.3,3.4,6.9,4.4c2.7,1.1,5.6,1.6,8.6,1.6c3.5,0.1,7.1-0.6,10.3-2
	c2.7-1.2,5-3.1,6.8-5.4c1.8-2.5,3-5.2,3.7-8.2c0.8-3.4,1.1-6.9,1.1-10.4c0-2.9-0.1-5.8-0.5-8.7c-0.2-1.9-0.7-3.8-1.4-5.5h-20.3
	L387.3,59.2z"/>
<rect x="425.1" y="58.3" class="st0" width="12.7" height="39.5"/>
<path class="st0" d="M450.8,54.7c-0.1-0.4,9.3-0.3,18.2-0.8c8-0.4,15.6-1.3,15.6,0s-7.8,0.7-15.8,0.7C460,54.6,450.9,55,450.8,54.7z
	"/>
<path class="st0" d="M452.2,48.5c0-0.1,1.8-0.1,3.5-0.3c1.5-0.1,3-0.4,3-0.1s-1.5,0.2-3,0.3S452.2,48.6,452.2,48.5z"/>
<path class="st0" d="M444.1,58c0-0.4,4.4,0.1,8.5,0.1c3.7,0,7.3-0.6,7.2,0.7s-3.6,0.4-7.4,0C448.4,58.4,444.2,58.4,444.1,58z"/>
<path class="st0" d="M407,141.7c0.1,0.4-16.7-0.1-32.7-0.1c-14.3,0-27.9,0.6-27.8-0.7s13.9-0.4,28.3,0
	C390.5,141.4,406.9,141.3,407,141.7z"/>
<path class="st0" d="M414.5,115.9c-1.7-0.9-5.6-1-7.6-1.7s-2-1.9-5.8-2.4c-26.5-1.1-53.2,0.3-80,0.4c-12.7,0.1-25.1-0.3-37.8-0.5
	c-20.5-0.4-41.2-0.5-58.4-0.8c-28.1-0.5-60.8-0.8-92.6-1.5c-14.5-0.3-29.4-0.8-43.2-0.1c-2.7,2.2-16.1,1.4-25.6,1.7
	c1.1,0.5,3.9,0.5,5.4,0.9c-0.7,0.2-2.1,0.1-2.7,0.3c5-0.2,9.9,0,14.8,0.7c0.4,0.3-0.6,0.3-0.4,0.6c2,0,3,0.3,2.2,0.7
	c-5.7-0.1-11.2-0.7-17.1-0.4c-0.8,0.3-0.9,0.9-1.8,1.2c-1.8-0.2-3.7,0-5.4,0.8c2.2,0.7,6.9,0.6,11.7,0.8c0.7,0.4,0.9,0.9,3.6,0.8
	c1.9-0.8-1.7-1-1.8-1.6c4.8-0.4,10.8,0.3,13.5,1.2c-1.2,1.2-5.5,0.4-9,0.3c-3.8,0.6-5.1,2-12.6,1.6c-1,0.2,0.4,0.4,0,0.8
	c-1.2,0.3-3-0.1-3.6,0.1c5,0.2,6.6,1.4,3.6,2.6c0.7,0.3,2.1,0.5,1.8,1.1c-1.7,0.4-3.3-0.2-5,0.2c-0.3,1.5,5.8,1.4,7.6,2.5
	c-1.4,0.1-2.3-0.4-2.7-0.1c0.6,0.2,2.3,0.1,2.2,0.5c-7.5,0.2-18.6-0.2-27.9-0.5c4.8,0.5,9.4,1,11.2,2.2c-0.8,0-1.2-0.2-1.3,0
	c2.1,0.2,3.3,0.8,3.1,1.6c1.1,0.4,4.2,1.2,0.9,1.3c1.9-0.6-0.9-0.2,0-0.6c-2.6,0.4-5.2,0.7-5.9,1.6c1.5,0.3,3.7,0.5,4.9,0.9
	c-3.5,0.1-7.1-0.5-9.9-0.2c0.4,0.1,2.6,0.3,1.3,0.4c-2.8,0.1-5.4-0.4-6.7-0.2c3.5,0.2,5.2,0.8,9.4,0.8c-0.1,0.2-0.7,0.2-0.9,0.4
	c1.9-0.3,3.9-0.3,5.8-0.2c0,0.3,0.2,0.7-0.9,0.7c-2.1-0.2-5-0.3-6.7-0.6c1.2,0.8,5.9,0.7,5.8,1.9c-2.9-0.1-6-0.1-8.1-0.4
	c-0.2,0.2,0.7,0.3,0,0.4c-1.8-0.1-3.3-0.8-4.5-0.6c2.5,1.4,9.1,1.6,12.6,2.7c0,0.2-1.5,0.1-1.3,0.4c0.7,0.1,2.3-0.1,2.2,0.1
	c-2.2-0.2-1.6,0.9-0.5,0.8c0.3-0.4-0.8-0.4-0.4-0.7c1.4-0.1,2.5-0.4,3.2,0.1c-4.5-0.4,0.4,0.7-1.8,0.9c-1.4-0.2-4.9-0.6-5.8-0.2
	c5.8,0.3,7.8,1.5,12.1,2.1c0.8,0.4-0.3,0.2-0.5,0.6c55.9,3.9,121.6,5.2,186,6.9c0.9,0.2-0.6,0.1,0.9,0.2c6.7,0.5,15.5,0.4,23.8,0.6
	c11.2,0.2,22.8,0.4,33.7,0.4c19.6-0.1,55.3-0.7,65.6-2c2.7-0.4,5.4-1,8.1-1.7c-0.6-0.2-1.3-0.5-1.8-0.9c0.1-3.1,2.1-6.6,8.2-8.5
	c14.4-0.2,9.5-5.4,16.7-7.4c4.5-0.3,9-0.6,13.9-0.9c-2-0.1-3.5,0.3-4.9,0c0.1-0.4,1.3-0.5,0.9-1.1c-0.9-0.3-2.5-0.5-2.7-1
	c1.8-0.6,0.1-1.4,0.5-2.3c0.6-0.3,2.6-0.3,3.1-0.7c0-0.8-2.7-0.9-4-1.3c2.2-0.2,5.8,0,7.2-0.4c0.4-0.6,0.8-1.2,1.4-1.7
	C408.5,119.6,415.8,117.7,414.5,115.9z M54.3,131.6c-0.2-0.4,1.2-0.3,1.3-0.6C56.5,131,55.9,131.8,54.3,131.6z M55.2,140.5
	c0.9-0.3,2.3,0.2,3.6,0.1C57.9,140.9,56.4,140.4,55.2,140.5z M178.1,140.9c-0.6,0.6-1.6,0.6-2.2,0s-0.6-1.6,0-2.2
	c0.6-0.6,1.6-0.6,2.2,0c0.3,0.3,0.5,0.7,0.5,1.1C178.5,140.2,178.4,140.6,178.1,140.9L178.1,140.9z M202.8,141.2h-2.7l-13.7-19.8
	h-0.1v19.8h-2.1v-22.6h2.7l13.7,19.7h0.1v-19.7h2.1V141.2z M211.1,141.2H209v-22.6h2.1L211.1,141.2z M235.9,141.2h-2.7l-13.7-19.8
	h-0.1v19.8h-2.1v-22.6h2.7l13.7,19.7h0.1v-19.7h2.1V141.2z M251.2,134.5c0,0.8-0.1,1.5-0.1,2.3c-0.1,0.8-0.4,1.6-0.8,2.3
	c-0.4,0.8-1.1,1.4-1.9,1.9c-1.1,0.6-2.2,0.8-3.4,0.8c-1.4,0.1-2.8-0.4-3.9-1.3c-1-0.9-1.7-2.1-1.9-3.4l2.1-0.4
	c0.3,1.9,1.9,3.2,3.8,3.1c0.7,0,1.3-0.1,1.9-0.4c0.5-0.2,0.9-0.6,1.3-1c0.3-0.5,0.6-1,0.7-1.5c0.2-0.6,0.2-1.3,0.2-1.9v-16.4h2.1
	L251.2,134.5z M273.6,141.2l-2.5-6h-11.9l-2.5,6h-2.2l9.8-22.6h2.2l9.5,22.6L273.6,141.2z"/>
<polygon class="st0" points="260.1,133.3 270.4,133.3 265.3,120.9 "/>
</svg>
