<?xml version="1.0" encoding="UTF-8" standalone="no"?>
<svg width="145px" height="147px" viewBox="0 0 145 147" version="1.1" xmlns="http://www.w3.org/2000/svg" xmlns:xlink="http://www.w3.org/1999/xlink">
    <!-- Generator: Sketch 42 (36781) - http://www.bohemiancoding.com/sketch -->
    <title>Combined Shape</title>
    <desc>Created with Sketch.</desc>
    <defs></defs>
    <g id="Symbols" stroke="none" stroke-width="1" fill="none" fill-rule="evenodd">
        <g id="Pin" fill="#EEEEEE">
            <path d="M49.3781873,5.28737413 C46.0493357,6.40889161 40.5055194,8.76962937 41.2207845,7.94827972 L40.4450601,7.98682867 C43.0919505,6.42431119 55.0813498,2.56787413 49.3781873,5.28737413 Z M16.6764859,124.792669 C16.8675989,125.096435 16.6365212,125.016767 16.7138887,125.244977 C15.373023,123.331407 11.8469099,117.352721 11.9995954,117.277679 C11.2044011,115.69563 10.5900724,114.268805 10.3574576,113.315361 C10.1653198,113.167847 10.1873516,113.106169 10.3174929,113.131868 C10.2585707,112.840952 10.2396131,112.599379 10.2718922,112.425651 C10.3897367,112.693952 10.5265389,112.98641 10.6761502,113.294802 C10.7735,113.35648 11.0102138,113.865326 11.0025283,113.95219 C13.0576343,117.99983 16.9265212,124.263263 16.6764859,124.792669 Z M16.3842314,120.276685 C16.7454505,120.991126 17.1722527,121.664447 17.5657509,122.364496 C16.1388074,120.615402 14.5361219,118.228451 13.8925883,116.48501 C13.9156449,115.572171 15.717129,119.339174 16.3842314,120.276685 Z M37.4994081,139.923132 C42.4391431,143.293852 31.8997438,137.137842 37.8570406,141.042594 C36.7011396,140.306566 35.4991254,139.634786 34.3796025,138.838622 L33.6182244,137.308485 C34.8812102,138.228006 36.1698145,139.105894 37.4994081,139.923132 Z M42.655106,142.092976 C41.1277385,141.111776 41.7220848,140.920059 39.1802297,139.685979 C36.70447,138.241164 41.5458304,141.863738 42.655106,142.092976 Z M3.5675636,59.2699888 L3.62136219,59.0345832 C4.32381802,56.0920133 6.67712191,49.8332056 6.91588516,49.6980273 C7.25968375,48.9805028 7.62397703,48.2670902 8.01235159,47.5557336 C8.1665742,48.1015867 8.83777562,47.5721811 9.84099117,46.4352441 C10.1960618,45.6719748 10.5680406,44.9179573 10.949242,44.1695937 C10.8949311,44.1716497 11.3212208,43.4171182 11.3196837,43.460807 C12.1343481,41.9049713 12.9997367,40.3804888 13.9235353,38.8955832 C13.8958675,38.903807 13.8712739,38.9084329 13.8477049,38.9125448 C12.8947014,39.9235552 12.5140124,40.079807 14.9369982,35.9689469 C13.8692244,37.8172406 12.1548428,40.3290902 12.0062562,40.3290902 C11.3847544,41.110349 10.9651254,41.5976077 10.6372102,42.3315797 C10.4220159,42.1650483 14.4446131,34.823786 15.7214329,33.096793 C18.3852314,29.4824434 20.3204435,27.0877825 16.1615565,31.2423315 C14.4938004,32.9035343 13.0289417,34.9918594 11.7290654,37.1727021 C11.7813269,37.2014853 9.19592049,41.842265 8.47194523,43.3317965 C8.57851767,43.3317965 7.77000177,44.782779 7.55173322,45.2340587 C7.58759894,45.2350867 7.62243993,45.2345727 7.6639417,45.2412545 C7.5220159,45.923314 7.13056714,46.364314 6.81853534,46.8808699 C6.82007244,46.8325552 6.81238693,46.7934923 6.80982509,46.7503175 C6.46243993,47.4457406 6.13401237,48.0794853 5.82659187,48.6135168 C4.76137986,49.7591916 5.26606184,47.869265 6.53827032,44.9220692 C6.53827032,44.7560517 6.68327032,44.4240168 6.75551413,44.4240168 C7.52970141,42.6759503 8.53957774,40.6200063 9.63860601,38.6175168 C9.64219258,37.8275203 13.1145071,32.9523629 14.1100371,31.8251916 C14.6367509,31.0737441 15.4801078,30.0236706 16.3957085,28.9550937 L16.3957085,28.8677161 L16.4705141,28.8677161 C18.5753198,26.4190867 21.023924,23.9134049 20.8804611,24.7085413 C23.7527933,21.3162336 26.7726873,18.6465902 29.9196484,16.4580378 C29.9534647,16.3650063 30.0200724,16.303842 30.1471396,16.301272 C30.3254435,16.1789434 30.5042597,16.0607266 30.683076,15.9409678 C30.6600194,15.8052755 30.7327756,15.5863175 31.0043304,15.2707301 C31.0991184,15.3971706 31.1544541,15.5097336 31.1821219,15.6099608 C38.9926519,10.5410308 47.5553375,8.19365664 56.5796661,5.05525804 C61.328288,4.2154049 62.3161325,4.74275455 68.6612915,4.07868462 C66.4258322,2.94791538 81.4207792,3.21261818 85.9285883,4.15526853 C90.0326519,4.7556042 94.2888887,5.90230699 98.3237827,7.35534545 C98.4195954,7.35534545 101.18433,8.40079301 101.299101,8.49793636 C101.966716,8.77034895 103.630373,9.40357972 103.703129,9.52796434 C104.69661,9.9741042 107.061186,11.0632406 107.061186,11.1423944 C109.835143,12.5707615 112.283235,14.0793105 114.211786,15.5487965 C117.665143,17.7430028 122.810337,21.5105203 119.173553,18.2986217 C123.887334,22.0085727 126.711504,26.4859049 130.572193,29.6474329 C126.41638,24.5157965 126.361044,24.4135133 123.427228,21.3249713 C131.050744,26.7300483 137.573694,36.8663664 141.021928,44.5036846 C141.053694,44.4733594 141.242758,44.8089923 141.459489,45.1991077 C145.645019,57.3723524 145.34221,67.7101531 144.142246,73.005751 C144.191945,74.0923175 144.220638,75.1855657 144.220638,76.2849818 C144.220638,86.165335 142.19986,95.572307 138.551292,104.112185 C138.656839,104.343992 138.534383,104.469919 138.380673,104.49716 C138.129101,105.075908 137.87138,105.651059 137.604949,106.222097 C137.661309,106.468297 137.689489,106.729401 137.521433,107.123629 C137.508111,106.917006 137.51426,106.69188 137.459436,106.525863 C137.336981,106.784912 137.214012,107.043447 137.088482,107.30044 C137.422546,107.891524 136.623253,108.481066 136.394224,109.033601 C136.386027,108.946223 136.372705,108.863985 136.328641,108.810531 C136.243076,108.97552 136.160072,109.142566 136.07297,109.307555 C136.087316,109.306013 136.095002,109.310125 136.110885,109.307041 L136.110885,109.852894 C135.964348,109.943356 135.843942,109.950552 135.748129,109.910975 C135.320814,110.701999 134.878129,111.483258 134.422122,112.255779 L134.422122,112.582674 L134.230496,112.582674 C129.775973,120.036499 123.994419,126.601643 117.208624,131.942471 C113.657917,134.883499 109.895602,137.460111 106.02774,139.585957 C105.704949,139.605489 104.74426,139.93187 103.788182,140.253111 C96.7154611,143.602244 88.9971572,145.80159 80.8730583,146.621912 C80.638394,146.91951 75.9676519,146.986328 73.7429523,146.986328 C61.8237473,146.986328 50.5988004,144.013947 40.7562208,138.774887 C39.4215035,138.143199 38.2266625,137.541835 37.4483763,137.097751 C36.9718746,136.732307 36.4292774,136.331398 35.8467155,135.905303 C32.2785883,133.617552 28.9328286,131.014213 25.8417155,128.139489 C25.1156908,127.629615 23.5673163,126.265496 23.8245247,126.854524 C26.3633057,129.11195 27.1118746,130.125017 29.783871,132.387069 C28.1606908,132.147552 20.7103551,123.804017 20.7103551,123.828688 C20.7103551,123.828688 20.4977226,123.010422 20.6734647,123.010422 C20.0104611,122.202436 18.7362032,120.481611 18.7300548,120.473387 C18.7162208,120.848083 17.5613445,118.967922 17.0474399,118.270957 C17.0474399,118.303338 16.6421572,117.824817 16.7210618,117.824817 C14.4661325,114.715716 12.4571396,111.416954 10.7238004,107.953716 C10.6812739,107.96965 10.6320866,107.984555 10.568553,107.997919 C10.5557438,107.971706 10.5285883,107.926475 10.4968216,107.871478 C10.6607792,108.320188 10.8298604,108.767356 11.0061148,109.212468 C10.6915212,108.680492 10.3892244,108.134125 10.0992244,107.57645 C9.93372968,107.372912 9.87531979,107.230024 9.88403004,107.138534 C9.31683922,106.012905 8.79524912,104.845643 8.31567314,103.648055 C8.31567314,103.823324 8.12302297,103.631608 8.30901237,103.631608 C7.88067314,102.560975 6.16577915,100.339013 6.90717491,99.8096077 C6.93945406,99.8630622 6.49984276,98.4100238 6.2769629,97.6349329 C6.13452473,97.6539503 5.97569081,97.3039259 6.2139417,97.4175168 C5.61857067,95.3219958 5.11440106,93.2300727 4.68298763,91.2178175 C4.61484276,91.491258 4.7275636,91.9404818 4.3950371,91.9564154 C5.24403004,95.717765 6.06637986,98.6932301 5.60217491,98.7292091 C5.27938339,98.6649608 3.86473675,94.5659224 3.94927739,94.5659224 C3.80888869,94.0539923 3.6715742,93.5204748 3.54143286,92.9782196 C3.53579682,92.9797615 3.53221025,92.9838734 3.52606184,92.9854154 C3.52708657,92.9653699 3.52759894,92.9453245 3.52862367,92.925279 C3.52554947,92.9134573 2.69653887,88.8601636 2.62890636,87.5772545 C2.57408304,86.9090727 2.52284629,86.2475727 2.47365901,85.5891566 C2.41883569,85.6205098 2.34505477,85.6328455 2.25334099,85.6287336 C2.28664488,85.907314 2.3194364,86.1884643 2.35530212,86.4891462 C2.06683922,85.9206776 2.0735,87.9180273 1.98229859,88.0470378 C2.01611484,88.7861497 2.09758127,89.6974469 2.22311131,90.6735063 C2.23643286,90.6878979 2.25436572,90.7089713 2.27793463,90.7356986 C2.41934806,90.6128559 2.7559735,93.9676427 3.08030212,95.167286 C3.38925972,96.0940028 4.36634452,98.5092231 4.27872968,98.7461706 C4.94429505,100.706513 5.64572615,102.692555 6.363553,104.474031 C6.64381802,104.794758 6.67558481,104.978765 6.60334099,105.061003 C6.85645053,105.669048 7.11109717,106.251394 7.36625618,106.792108 C8.27263428,109.033601 7.53841166,109.040797 5.5944894,104.657524 C5.15231625,103.345317 4.71321731,101.978115 4.28590283,100.571849 C4.18291696,100.571849 4.07327032,100.024968 4.12143286,100.024968 C3.88933039,99.2493629 3.66183922,98.4624503 3.43947173,97.665258 C3.35236926,97.739272 3.19609717,96.7822301 3.13205124,96.5442545 L3.13205124,96.7503629 C2.94401237,96.7503629 2.80311131,95.2988664 2.68731625,94.8424469 C2.40961307,94.7756287 2.35888869,93.6001427 2.39577915,93.6643909 C2.25539046,93.0830727 1.64772261,91.6141007 1.8449841,91.2681881 C1.71023145,90.6498629 1.58111484,90.0289678 1.45814664,89.4065308 C1.408447,89.4378839 1.20606184,88.5301846 1.29009011,88.5430343 C1.05183922,87.2776007 0.459030035,84.2682126 0.587121908,84.1895727 C0.526150177,83.7362371 0.248446996,82.2831986 0.355531802,82.2831986 C-0.200386926,77.1114713 -0.157860424,72.0553909 0.867386926,67.6001601 C0.556379859,70.8002371 0.525637809,72.825342 0.611715548,74.2454853 C0.673199647,75.7807615 0.92989576,76.608793 1.07643286,77.3263175 C1.32390636,78.2787336 1.47607951,79.2100762 1.723553,81.1930343 L2.19185689,81.1930343 C2.15906537,80.5711112 2.12934806,79.952272 2.10475442,79.3385727 C1.92081449,79.3385727 2.06120318,78.1276217 2.05198057,77.7976427 C1.83063781,77.9055797 2.34864134,64.4859189 3.5675636,59.2699888 Z M97.6715389,5.02590944 C97.9717862,5.1816472 98.5005495,5.73983601 98.5210442,5.62213322 C96.8276696,5.15543392 94.2048604,4.43122762 91.9909205,3.62067168 C93.9025636,3.99999336 95.7865389,4.4980458 97.6715389,5.02590944 Z M63.2841484,2.20597657 C69.8050495,1.48793811 76.7363569,1.02380874 83.2716042,1.99061643 C84.6114452,2.04664091 85.9492367,2.17256748 87.2983004,2.26457098 C79.6553145,0.127931119 65.422258,-0.326432517 56.2672756,2.45166189 C53.8227703,3.82965839 58.257311,2.24606748 63.2841484,2.20597657 Z" id="Combined-Shape"></path>
        </g>
    </g>
</svg>